<mxfile host="app.diagrams.net" modified="2023-12-29T12:45:33.215Z" agent="Mozilla/5.0 (X11; Ubuntu; Linux x86_64; rv:120.0) Gecko/20100101 Firefox/120.0" etag="ANAeAxuqfuHMmz-26dq_" version="22.1.15" type="github">
  <diagram id="R2lEEEUBdFMjLlhIrx00" name="Page-1">
    <mxGraphModel dx="4720" dy="5403" grid="1" gridSize="10" guides="0" tooltips="1" connect="1" arrows="1" fold="1" page="1" pageScale="1" pageWidth="3300" pageHeight="2339" math="0" shadow="0" extFonts="Permanent Marker^https://fonts.googleapis.com/css?family=Permanent+Marker">
      <root>
        <mxCell id="0" />
        <mxCell id="1" parent="0" />
        <mxCell id="C-vyLk0tnHw3VtMMgP7b-23" value="Certificate" style="shape=table;startSize=30;container=1;collapsible=1;childLayout=tableLayout;fixedRows=1;rowLines=0;fontStyle=1;align=center;resizeLast=1;fillColor=none;strokeColor=#000000;fontSize=16;" parent="1" vertex="1">
          <mxGeometry x="-1180" y="-1280" width="430" height="620" as="geometry" />
        </mxCell>
        <mxCell id="C-vyLk0tnHw3VtMMgP7b-24" value="" style="shape=partialRectangle;collapsible=0;dropTarget=0;pointerEvents=0;fillColor=none;points=[[0,0.5],[1,0.5]];portConstraint=eastwest;top=0;left=0;right=0;bottom=1;fontSize=16;" parent="C-vyLk0tnHw3VtMMgP7b-23" vertex="1">
          <mxGeometry y="30" width="430" height="30" as="geometry" />
        </mxCell>
        <mxCell id="C-vyLk0tnHw3VtMMgP7b-25" value="PK" style="shape=partialRectangle;overflow=hidden;connectable=0;fillColor=none;top=0;left=0;bottom=0;right=0;fontStyle=1;fontSize=16;" parent="C-vyLk0tnHw3VtMMgP7b-24" vertex="1">
          <mxGeometry width="50" height="30" as="geometry">
            <mxRectangle width="50" height="30" as="alternateBounds" />
          </mxGeometry>
        </mxCell>
        <mxCell id="C-vyLk0tnHw3VtMMgP7b-26" value="serial_number" style="shape=partialRectangle;overflow=hidden;connectable=0;fillColor=none;top=0;left=0;bottom=0;right=0;align=left;spacingLeft=6;fontStyle=5;fontSize=16;" parent="C-vyLk0tnHw3VtMMgP7b-24" vertex="1">
          <mxGeometry x="50" width="380" height="30" as="geometry">
            <mxRectangle width="380" height="30" as="alternateBounds" />
          </mxGeometry>
        </mxCell>
        <mxCell id="C-vyLk0tnHw3VtMMgP7b-27" value="" style="shape=partialRectangle;collapsible=0;dropTarget=0;pointerEvents=0;fillColor=none;points=[[0,0.5],[1,0.5]];portConstraint=eastwest;top=0;left=0;right=0;bottom=0;fontSize=16;" parent="C-vyLk0tnHw3VtMMgP7b-23" vertex="1">
          <mxGeometry y="60" width="430" height="40" as="geometry" />
        </mxCell>
        <mxCell id="C-vyLk0tnHw3VtMMgP7b-28" value="" style="shape=partialRectangle;overflow=hidden;connectable=0;fillColor=none;top=0;left=0;bottom=0;right=0;strokeColor=#000000;fontSize=16;" parent="C-vyLk0tnHw3VtMMgP7b-27" vertex="1">
          <mxGeometry width="50" height="40" as="geometry">
            <mxRectangle width="50" height="40" as="alternateBounds" />
          </mxGeometry>
        </mxCell>
        <mxCell id="C-vyLk0tnHw3VtMMgP7b-29" value="issue_date DATE NOT NULL" style="shape=partialRectangle;overflow=hidden;connectable=0;fillColor=none;top=0;left=0;bottom=0;right=0;align=left;spacingLeft=6;dashed=1;strokeColor=#000000;fontSize=16;" parent="C-vyLk0tnHw3VtMMgP7b-27" vertex="1">
          <mxGeometry x="50" width="380" height="40" as="geometry">
            <mxRectangle width="380" height="40" as="alternateBounds" />
          </mxGeometry>
        </mxCell>
        <mxCell id="17bObgYSpj2WF66oxN5m-48" value="" style="shape=partialRectangle;collapsible=0;dropTarget=0;pointerEvents=0;fillColor=none;points=[[0,0.5],[1,0.5]];portConstraint=eastwest;top=0;left=0;right=0;bottom=0;fontSize=16;" parent="C-vyLk0tnHw3VtMMgP7b-23" vertex="1">
          <mxGeometry y="100" width="430" height="40" as="geometry" />
        </mxCell>
        <mxCell id="17bObgYSpj2WF66oxN5m-49" value="" style="shape=partialRectangle;overflow=hidden;connectable=0;fillColor=none;top=0;left=0;bottom=0;right=0;strokeColor=#000000;fontSize=16;" parent="17bObgYSpj2WF66oxN5m-48" vertex="1">
          <mxGeometry width="50" height="40" as="geometry">
            <mxRectangle width="50" height="40" as="alternateBounds" />
          </mxGeometry>
        </mxCell>
        <mxCell id="17bObgYSpj2WF66oxN5m-50" value="expiry_date DATE NOT NULL" style="shape=partialRectangle;overflow=hidden;connectable=0;fillColor=none;top=0;left=0;bottom=0;right=0;align=left;spacingLeft=6;dashed=1;strokeColor=#000000;fontSize=16;" parent="17bObgYSpj2WF66oxN5m-48" vertex="1">
          <mxGeometry x="50" width="380" height="40" as="geometry">
            <mxRectangle width="380" height="40" as="alternateBounds" />
          </mxGeometry>
        </mxCell>
        <mxCell id="17bObgYSpj2WF66oxN5m-51" value="" style="shape=partialRectangle;collapsible=0;dropTarget=0;pointerEvents=0;fillColor=none;points=[[0,0.5],[1,0.5]];portConstraint=eastwest;top=0;left=0;right=0;bottom=0;fontSize=16;" parent="C-vyLk0tnHw3VtMMgP7b-23" vertex="1">
          <mxGeometry y="140" width="430" height="40" as="geometry" />
        </mxCell>
        <mxCell id="17bObgYSpj2WF66oxN5m-52" value="" style="shape=partialRectangle;overflow=hidden;connectable=0;fillColor=none;top=0;left=0;bottom=0;right=0;strokeColor=#000000;fontSize=16;" parent="17bObgYSpj2WF66oxN5m-51" vertex="1">
          <mxGeometry width="50" height="40" as="geometry">
            <mxRectangle width="50" height="40" as="alternateBounds" />
          </mxGeometry>
        </mxCell>
        <mxCell id="17bObgYSpj2WF66oxN5m-53" value="version VARCHAR NOT NULL" style="shape=partialRectangle;overflow=hidden;connectable=0;fillColor=none;top=0;left=0;bottom=0;right=0;align=left;spacingLeft=6;dashed=1;strokeColor=#000000;fontSize=16;" parent="17bObgYSpj2WF66oxN5m-51" vertex="1">
          <mxGeometry x="50" width="380" height="40" as="geometry">
            <mxRectangle width="380" height="40" as="alternateBounds" />
          </mxGeometry>
        </mxCell>
        <mxCell id="JsjeuOleq2LhqQmNNz2R-30" value="" style="shape=partialRectangle;collapsible=0;dropTarget=0;pointerEvents=0;fillColor=none;points=[[0,0.5],[1,0.5]];portConstraint=eastwest;top=0;left=0;right=0;bottom=0;fontSize=16;" parent="C-vyLk0tnHw3VtMMgP7b-23" vertex="1">
          <mxGeometry y="180" width="430" height="40" as="geometry" />
        </mxCell>
        <mxCell id="JsjeuOleq2LhqQmNNz2R-31" value="FK 1" style="shape=partialRectangle;overflow=hidden;connectable=0;fillColor=none;top=0;left=0;bottom=0;right=0;strokeColor=#000000;fontSize=16;" parent="JsjeuOleq2LhqQmNNz2R-30" vertex="1">
          <mxGeometry width="50" height="40" as="geometry">
            <mxRectangle width="50" height="40" as="alternateBounds" />
          </mxGeometry>
        </mxCell>
        <mxCell id="JsjeuOleq2LhqQmNNz2R-32" value="issuer_id" style="shape=partialRectangle;overflow=hidden;connectable=0;fillColor=none;top=0;left=0;bottom=0;right=0;align=left;spacingLeft=6;dashed=1;strokeColor=#000000;fontSize=16;" parent="JsjeuOleq2LhqQmNNz2R-30" vertex="1">
          <mxGeometry x="50" width="380" height="40" as="geometry">
            <mxRectangle width="380" height="40" as="alternateBounds" />
          </mxGeometry>
        </mxCell>
        <mxCell id="17bObgYSpj2WF66oxN5m-54" value="" style="shape=partialRectangle;collapsible=0;dropTarget=0;pointerEvents=0;fillColor=none;points=[[0,0.5],[1,0.5]];portConstraint=eastwest;top=0;left=0;right=0;bottom=0;fontSize=16;" parent="C-vyLk0tnHw3VtMMgP7b-23" vertex="1">
          <mxGeometry y="220" width="430" height="40" as="geometry" />
        </mxCell>
        <mxCell id="17bObgYSpj2WF66oxN5m-55" value="FK 2" style="shape=partialRectangle;overflow=hidden;connectable=0;fillColor=none;top=0;left=0;bottom=0;right=0;strokeColor=#000000;fontSize=16;" parent="17bObgYSpj2WF66oxN5m-54" vertex="1">
          <mxGeometry width="50" height="40" as="geometry">
            <mxRectangle width="50" height="40" as="alternateBounds" />
          </mxGeometry>
        </mxCell>
        <mxCell id="17bObgYSpj2WF66oxN5m-56" value="subj_serial_number" style="shape=partialRectangle;overflow=hidden;connectable=0;fillColor=none;top=0;left=0;bottom=0;right=0;align=left;spacingLeft=6;dashed=1;strokeColor=#000000;fontSize=16;" parent="17bObgYSpj2WF66oxN5m-54" vertex="1">
          <mxGeometry x="50" width="380" height="40" as="geometry">
            <mxRectangle width="380" height="40" as="alternateBounds" />
          </mxGeometry>
        </mxCell>
        <mxCell id="17bObgYSpj2WF66oxN5m-61" value="" style="shape=partialRectangle;collapsible=0;dropTarget=0;pointerEvents=0;fillColor=none;points=[[0,0.5],[1,0.5]];portConstraint=eastwest;top=0;left=0;right=0;bottom=0;fontSize=16;" parent="C-vyLk0tnHw3VtMMgP7b-23" vertex="1">
          <mxGeometry y="260" width="430" height="40" as="geometry" />
        </mxCell>
        <mxCell id="17bObgYSpj2WF66oxN5m-62" value="" style="shape=partialRectangle;overflow=hidden;connectable=0;fillColor=none;top=0;left=0;bottom=0;right=0;strokeColor=#000000;fontSize=16;" parent="17bObgYSpj2WF66oxN5m-61" vertex="1">
          <mxGeometry width="50" height="40" as="geometry">
            <mxRectangle width="50" height="40" as="alternateBounds" />
          </mxGeometry>
        </mxCell>
        <mxCell id="17bObgYSpj2WF66oxN5m-63" value="cert_fp_SHA1" style="shape=partialRectangle;overflow=hidden;connectable=0;fillColor=none;top=0;left=0;bottom=0;right=0;align=left;spacingLeft=6;dashed=1;strokeColor=#000000;fontSize=16;" parent="17bObgYSpj2WF66oxN5m-61" vertex="1">
          <mxGeometry x="50" width="380" height="40" as="geometry">
            <mxRectangle width="380" height="40" as="alternateBounds" />
          </mxGeometry>
        </mxCell>
        <mxCell id="17bObgYSpj2WF66oxN5m-64" value="" style="shape=partialRectangle;collapsible=0;dropTarget=0;pointerEvents=0;fillColor=none;points=[[0,0.5],[1,0.5]];portConstraint=eastwest;top=0;left=0;right=0;bottom=0;fontSize=16;" parent="C-vyLk0tnHw3VtMMgP7b-23" vertex="1">
          <mxGeometry y="300" width="430" height="40" as="geometry" />
        </mxCell>
        <mxCell id="17bObgYSpj2WF66oxN5m-65" value="" style="shape=partialRectangle;overflow=hidden;connectable=0;fillColor=none;top=0;left=0;bottom=0;right=0;strokeColor=#000000;fontSize=16;" parent="17bObgYSpj2WF66oxN5m-64" vertex="1">
          <mxGeometry width="50" height="40" as="geometry">
            <mxRectangle width="50" height="40" as="alternateBounds" />
          </mxGeometry>
        </mxCell>
        <mxCell id="17bObgYSpj2WF66oxN5m-66" value="cert_fp_MD5" style="shape=partialRectangle;overflow=hidden;connectable=0;fillColor=none;top=0;left=0;bottom=0;right=0;align=left;spacingLeft=6;dashed=1;strokeColor=#000000;fontSize=16;" parent="17bObgYSpj2WF66oxN5m-64" vertex="1">
          <mxGeometry x="50" width="380" height="40" as="geometry">
            <mxRectangle width="380" height="40" as="alternateBounds" />
          </mxGeometry>
        </mxCell>
        <mxCell id="17bObgYSpj2WF66oxN5m-67" value="" style="shape=partialRectangle;collapsible=0;dropTarget=0;pointerEvents=0;fillColor=none;points=[[0,0.5],[1,0.5]];portConstraint=eastwest;top=0;left=0;right=0;bottom=0;fontSize=16;" parent="C-vyLk0tnHw3VtMMgP7b-23" vertex="1">
          <mxGeometry y="340" width="430" height="40" as="geometry" />
        </mxCell>
        <mxCell id="17bObgYSpj2WF66oxN5m-68" value="FK 3" style="shape=partialRectangle;overflow=hidden;connectable=0;fillColor=none;top=0;left=0;bottom=0;right=0;strokeColor=#000000;fontSize=16;" parent="17bObgYSpj2WF66oxN5m-67" vertex="1">
          <mxGeometry width="50" height="40" as="geometry">
            <mxRectangle width="50" height="40" as="alternateBounds" />
          </mxGeometry>
        </mxCell>
        <mxCell id="17bObgYSpj2WF66oxN5m-69" value="public_key" style="shape=partialRectangle;overflow=hidden;connectable=0;fillColor=none;top=0;left=0;bottom=0;right=0;align=left;spacingLeft=6;dashed=1;strokeColor=#000000;fontSize=16;" parent="17bObgYSpj2WF66oxN5m-67" vertex="1">
          <mxGeometry x="50" width="380" height="40" as="geometry">
            <mxRectangle width="380" height="40" as="alternateBounds" />
          </mxGeometry>
        </mxCell>
        <mxCell id="17bObgYSpj2WF66oxN5m-70" value="" style="shape=partialRectangle;collapsible=0;dropTarget=0;pointerEvents=0;fillColor=none;points=[[0,0.5],[1,0.5]];portConstraint=eastwest;top=0;left=0;right=0;bottom=0;fontSize=16;" parent="C-vyLk0tnHw3VtMMgP7b-23" vertex="1">
          <mxGeometry y="380" width="430" height="40" as="geometry" />
        </mxCell>
        <mxCell id="17bObgYSpj2WF66oxN5m-71" value="FK 4" style="shape=partialRectangle;overflow=hidden;connectable=0;fillColor=none;top=0;left=0;bottom=0;right=0;strokeColor=#000000;fontSize=16;" parent="17bObgYSpj2WF66oxN5m-70" vertex="1">
          <mxGeometry width="50" height="40" as="geometry">
            <mxRectangle width="50" height="40" as="alternateBounds" />
          </mxGeometry>
        </mxCell>
        <mxCell id="17bObgYSpj2WF66oxN5m-72" value="subject_key_id" style="shape=partialRectangle;overflow=hidden;connectable=0;fillColor=none;top=0;left=0;bottom=0;right=0;align=left;spacingLeft=6;dashed=1;strokeColor=#000000;fontSize=16;" parent="17bObgYSpj2WF66oxN5m-70" vertex="1">
          <mxGeometry x="50" width="380" height="40" as="geometry">
            <mxRectangle width="380" height="40" as="alternateBounds" />
          </mxGeometry>
        </mxCell>
        <mxCell id="17bObgYSpj2WF66oxN5m-82" value="" style="shape=partialRectangle;collapsible=0;dropTarget=0;pointerEvents=0;fillColor=none;points=[[0,0.5],[1,0.5]];portConstraint=eastwest;top=0;left=0;right=0;bottom=0;fontSize=16;" parent="C-vyLk0tnHw3VtMMgP7b-23" vertex="1">
          <mxGeometry y="420" width="430" height="40" as="geometry" />
        </mxCell>
        <mxCell id="17bObgYSpj2WF66oxN5m-83" value="FK 5" style="shape=partialRectangle;overflow=hidden;connectable=0;fillColor=none;top=0;left=0;bottom=0;right=0;strokeColor=#000000;fontSize=16;" parent="17bObgYSpj2WF66oxN5m-82" vertex="1">
          <mxGeometry width="50" height="40" as="geometry">
            <mxRectangle width="50" height="40" as="alternateBounds" />
          </mxGeometry>
        </mxCell>
        <mxCell id="17bObgYSpj2WF66oxN5m-84" value="extended_usage_id" style="shape=partialRectangle;overflow=hidden;connectable=0;fillColor=none;top=0;left=0;bottom=0;right=0;align=left;spacingLeft=6;dashed=1;strokeColor=#000000;fontSize=16;" parent="17bObgYSpj2WF66oxN5m-82" vertex="1">
          <mxGeometry x="50" width="380" height="40" as="geometry">
            <mxRectangle width="380" height="40" as="alternateBounds" />
          </mxGeometry>
        </mxCell>
        <mxCell id="17bObgYSpj2WF66oxN5m-73" value="" style="shape=partialRectangle;collapsible=0;dropTarget=0;pointerEvents=0;fillColor=none;points=[[0,0.5],[1,0.5]];portConstraint=eastwest;top=0;left=0;right=0;bottom=0;fontSize=16;" parent="C-vyLk0tnHw3VtMMgP7b-23" vertex="1">
          <mxGeometry y="460" width="430" height="40" as="geometry" />
        </mxCell>
        <mxCell id="17bObgYSpj2WF66oxN5m-74" value="FK 6" style="shape=partialRectangle;overflow=hidden;connectable=0;fillColor=none;top=0;left=0;bottom=0;right=0;strokeColor=#000000;fontSize=16;" parent="17bObgYSpj2WF66oxN5m-73" vertex="1">
          <mxGeometry width="50" height="40" as="geometry">
            <mxRectangle width="50" height="40" as="alternateBounds" />
          </mxGeometry>
        </mxCell>
        <mxCell id="17bObgYSpj2WF66oxN5m-75" value="basic_constraints_id" style="shape=partialRectangle;overflow=hidden;connectable=0;fillColor=none;top=0;left=0;bottom=0;right=0;align=left;spacingLeft=6;dashed=1;strokeColor=#000000;fontSize=16;" parent="17bObgYSpj2WF66oxN5m-73" vertex="1">
          <mxGeometry x="50" width="380" height="40" as="geometry">
            <mxRectangle width="380" height="40" as="alternateBounds" />
          </mxGeometry>
        </mxCell>
        <mxCell id="17bObgYSpj2WF66oxN5m-76" value="" style="shape=partialRectangle;collapsible=0;dropTarget=0;pointerEvents=0;fillColor=none;points=[[0,0.5],[1,0.5]];portConstraint=eastwest;top=0;left=0;right=0;bottom=0;fontSize=16;" parent="C-vyLk0tnHw3VtMMgP7b-23" vertex="1">
          <mxGeometry y="500" width="430" height="40" as="geometry" />
        </mxCell>
        <mxCell id="17bObgYSpj2WF66oxN5m-77" value="FK 7" style="shape=partialRectangle;overflow=hidden;connectable=0;fillColor=none;top=0;left=0;bottom=0;right=0;strokeColor=#000000;fontSize=16;" parent="17bObgYSpj2WF66oxN5m-76" vertex="1">
          <mxGeometry width="50" height="40" as="geometry">
            <mxRectangle width="50" height="40" as="alternateBounds" />
          </mxGeometry>
        </mxCell>
        <mxCell id="17bObgYSpj2WF66oxN5m-78" value="key_usage_id" style="shape=partialRectangle;overflow=hidden;connectable=0;fillColor=none;top=0;left=0;bottom=0;right=0;align=left;spacingLeft=6;dashed=1;strokeColor=#000000;fontSize=16;" parent="17bObgYSpj2WF66oxN5m-76" vertex="1">
          <mxGeometry x="50" width="380" height="40" as="geometry">
            <mxRectangle width="380" height="40" as="alternateBounds" />
          </mxGeometry>
        </mxCell>
        <mxCell id="17bObgYSpj2WF66oxN5m-79" value="" style="shape=partialRectangle;collapsible=0;dropTarget=0;pointerEvents=0;fillColor=none;points=[[0,0.5],[1,0.5]];portConstraint=eastwest;top=0;left=0;right=0;bottom=0;fontSize=16;" parent="C-vyLk0tnHw3VtMMgP7b-23" vertex="1">
          <mxGeometry y="540" width="430" height="40" as="geometry" />
        </mxCell>
        <mxCell id="17bObgYSpj2WF66oxN5m-80" value="FK 8" style="shape=partialRectangle;overflow=hidden;connectable=0;fillColor=none;top=0;left=0;bottom=0;right=0;strokeColor=#000000;fontSize=16;" parent="17bObgYSpj2WF66oxN5m-79" vertex="1">
          <mxGeometry width="50" height="40" as="geometry">
            <mxRectangle width="50" height="40" as="alternateBounds" />
          </mxGeometry>
        </mxCell>
        <mxCell id="17bObgYSpj2WF66oxN5m-81" value="signature" style="shape=partialRectangle;overflow=hidden;connectable=0;fillColor=none;top=0;left=0;bottom=0;right=0;align=left;spacingLeft=6;dashed=1;strokeColor=#000000;fontSize=16;" parent="17bObgYSpj2WF66oxN5m-79" vertex="1">
          <mxGeometry x="50" width="380" height="40" as="geometry">
            <mxRectangle width="380" height="40" as="alternateBounds" />
          </mxGeometry>
        </mxCell>
        <mxCell id="BFu4falUhRQcTbq1laUE-4" value="" style="shape=partialRectangle;collapsible=0;dropTarget=0;pointerEvents=0;fillColor=none;points=[[0,0.5],[1,0.5]];portConstraint=eastwest;top=0;left=0;right=0;bottom=0;fontSize=16;" parent="C-vyLk0tnHw3VtMMgP7b-23" vertex="1">
          <mxGeometry y="580" width="430" height="40" as="geometry" />
        </mxCell>
        <mxCell id="BFu4falUhRQcTbq1laUE-5" value="" style="shape=partialRectangle;overflow=hidden;connectable=0;fillColor=none;top=0;left=0;bottom=0;right=0;strokeColor=#000000;fontSize=16;" parent="BFu4falUhRQcTbq1laUE-4" vertex="1">
          <mxGeometry width="50" height="40" as="geometry">
            <mxRectangle width="50" height="40" as="alternateBounds" />
          </mxGeometry>
        </mxCell>
        <mxCell id="BFu4falUhRQcTbq1laUE-6" value="raw_certificate TEXT NOT NULL" style="shape=partialRectangle;overflow=hidden;connectable=0;fillColor=none;top=0;left=0;bottom=0;right=0;align=left;spacingLeft=6;dashed=1;strokeColor=#000000;fontSize=16;" parent="BFu4falUhRQcTbq1laUE-4" vertex="1">
          <mxGeometry x="50" width="380" height="40" as="geometry">
            <mxRectangle width="380" height="40" as="alternateBounds" />
          </mxGeometry>
        </mxCell>
        <mxCell id="17bObgYSpj2WF66oxN5m-85" value="Subject" style="shape=table;startSize=30;container=1;collapsible=1;childLayout=tableLayout;fixedRows=1;rowLines=0;fontStyle=1;align=center;resizeLast=1;html=1;fontSize=16;" parent="1" vertex="1">
          <mxGeometry x="-2190" y="-1360" width="400" height="270" as="geometry" />
        </mxCell>
        <mxCell id="17bObgYSpj2WF66oxN5m-86" value="" style="shape=tableRow;horizontal=0;startSize=0;swimlaneHead=0;swimlaneBody=0;fillColor=none;collapsible=0;dropTarget=0;points=[[0,0.5],[1,0.5]];portConstraint=eastwest;top=0;left=0;right=0;bottom=1;fontSize=16;" parent="17bObgYSpj2WF66oxN5m-85" vertex="1">
          <mxGeometry y="30" width="400" height="30" as="geometry" />
        </mxCell>
        <mxCell id="17bObgYSpj2WF66oxN5m-87" value="PK" style="shape=partialRectangle;connectable=0;fillColor=none;top=0;left=0;bottom=0;right=0;fontStyle=1;overflow=hidden;whiteSpace=wrap;html=1;fontSize=16;" parent="17bObgYSpj2WF66oxN5m-86" vertex="1">
          <mxGeometry width="80" height="30" as="geometry">
            <mxRectangle width="80" height="30" as="alternateBounds" />
          </mxGeometry>
        </mxCell>
        <mxCell id="17bObgYSpj2WF66oxN5m-88" value="subj_serial_number" style="shape=partialRectangle;connectable=0;fillColor=none;top=0;left=0;bottom=0;right=0;align=left;spacingLeft=6;fontStyle=5;overflow=hidden;whiteSpace=wrap;html=1;fontSize=16;" parent="17bObgYSpj2WF66oxN5m-86" vertex="1">
          <mxGeometry x="80" width="320" height="30" as="geometry">
            <mxRectangle width="320" height="30" as="alternateBounds" />
          </mxGeometry>
        </mxCell>
        <mxCell id="17bObgYSpj2WF66oxN5m-92" value="" style="shape=tableRow;horizontal=0;startSize=0;swimlaneHead=0;swimlaneBody=0;fillColor=none;collapsible=0;dropTarget=0;points=[[0,0.5],[1,0.5]];portConstraint=eastwest;top=0;left=0;right=0;bottom=0;fontSize=16;" parent="17bObgYSpj2WF66oxN5m-85" vertex="1">
          <mxGeometry y="60" width="400" height="30" as="geometry" />
        </mxCell>
        <mxCell id="17bObgYSpj2WF66oxN5m-93" value="" style="shape=partialRectangle;connectable=0;fillColor=none;top=0;left=0;bottom=0;right=0;editable=1;overflow=hidden;whiteSpace=wrap;html=1;fontSize=16;" parent="17bObgYSpj2WF66oxN5m-92" vertex="1">
          <mxGeometry width="80" height="30" as="geometry">
            <mxRectangle width="80" height="30" as="alternateBounds" />
          </mxGeometry>
        </mxCell>
        <mxCell id="17bObgYSpj2WF66oxN5m-94" value="C (Country)" style="shape=partialRectangle;connectable=0;fillColor=none;top=0;left=0;bottom=0;right=0;align=left;spacingLeft=6;overflow=hidden;whiteSpace=wrap;html=1;fontSize=16;" parent="17bObgYSpj2WF66oxN5m-92" vertex="1">
          <mxGeometry x="80" width="320" height="30" as="geometry">
            <mxRectangle width="320" height="30" as="alternateBounds" />
          </mxGeometry>
        </mxCell>
        <mxCell id="17bObgYSpj2WF66oxN5m-95" value="" style="shape=tableRow;horizontal=0;startSize=0;swimlaneHead=0;swimlaneBody=0;fillColor=none;collapsible=0;dropTarget=0;points=[[0,0.5],[1,0.5]];portConstraint=eastwest;top=0;left=0;right=0;bottom=0;fontSize=16;" parent="17bObgYSpj2WF66oxN5m-85" vertex="1">
          <mxGeometry y="90" width="400" height="30" as="geometry" />
        </mxCell>
        <mxCell id="17bObgYSpj2WF66oxN5m-96" value="" style="shape=partialRectangle;connectable=0;fillColor=none;top=0;left=0;bottom=0;right=0;editable=1;overflow=hidden;whiteSpace=wrap;html=1;fontSize=16;" parent="17bObgYSpj2WF66oxN5m-95" vertex="1">
          <mxGeometry width="80" height="30" as="geometry">
            <mxRectangle width="80" height="30" as="alternateBounds" />
          </mxGeometry>
        </mxCell>
        <mxCell id="17bObgYSpj2WF66oxN5m-97" value="O (Organization)" style="shape=partialRectangle;connectable=0;fillColor=none;top=0;left=0;bottom=0;right=0;align=left;spacingLeft=6;overflow=hidden;whiteSpace=wrap;html=1;fontSize=16;" parent="17bObgYSpj2WF66oxN5m-95" vertex="1">
          <mxGeometry x="80" width="320" height="30" as="geometry">
            <mxRectangle width="320" height="30" as="alternateBounds" />
          </mxGeometry>
        </mxCell>
        <mxCell id="17bObgYSpj2WF66oxN5m-98" value="" style="shape=tableRow;horizontal=0;startSize=0;swimlaneHead=0;swimlaneBody=0;fillColor=none;collapsible=0;dropTarget=0;points=[[0,0.5],[1,0.5]];portConstraint=eastwest;top=0;left=0;right=0;bottom=0;fontSize=16;" parent="17bObgYSpj2WF66oxN5m-85" vertex="1">
          <mxGeometry y="120" width="400" height="30" as="geometry" />
        </mxCell>
        <mxCell id="17bObgYSpj2WF66oxN5m-99" value="" style="shape=partialRectangle;connectable=0;fillColor=none;top=0;left=0;bottom=0;right=0;editable=1;overflow=hidden;whiteSpace=wrap;html=1;fontSize=16;" parent="17bObgYSpj2WF66oxN5m-98" vertex="1">
          <mxGeometry width="80" height="30" as="geometry">
            <mxRectangle width="80" height="30" as="alternateBounds" />
          </mxGeometry>
        </mxCell>
        <mxCell id="17bObgYSpj2WF66oxN5m-100" value="telephoneNumber" style="shape=partialRectangle;connectable=0;fillColor=none;top=0;left=0;bottom=0;right=0;align=left;spacingLeft=6;overflow=hidden;whiteSpace=wrap;html=1;fontSize=16;" parent="17bObgYSpj2WF66oxN5m-98" vertex="1">
          <mxGeometry x="80" width="320" height="30" as="geometry">
            <mxRectangle width="320" height="30" as="alternateBounds" />
          </mxGeometry>
        </mxCell>
        <mxCell id="17bObgYSpj2WF66oxN5m-101" value="" style="shape=tableRow;horizontal=0;startSize=0;swimlaneHead=0;swimlaneBody=0;fillColor=none;collapsible=0;dropTarget=0;points=[[0,0.5],[1,0.5]];portConstraint=eastwest;top=0;left=0;right=0;bottom=0;fontSize=16;" parent="17bObgYSpj2WF66oxN5m-85" vertex="1">
          <mxGeometry y="150" width="400" height="30" as="geometry" />
        </mxCell>
        <mxCell id="17bObgYSpj2WF66oxN5m-102" value="" style="shape=partialRectangle;connectable=0;fillColor=none;top=0;left=0;bottom=0;right=0;editable=1;overflow=hidden;whiteSpace=wrap;html=1;fontSize=16;" parent="17bObgYSpj2WF66oxN5m-101" vertex="1">
          <mxGeometry width="80" height="30" as="geometry">
            <mxRectangle width="80" height="30" as="alternateBounds" />
          </mxGeometry>
        </mxCell>
        <mxCell id="17bObgYSpj2WF66oxN5m-103" value="postal_code" style="shape=partialRectangle;connectable=0;fillColor=none;top=0;left=0;bottom=0;right=0;align=left;spacingLeft=6;overflow=hidden;whiteSpace=wrap;html=1;fontSize=16;" parent="17bObgYSpj2WF66oxN5m-101" vertex="1">
          <mxGeometry x="80" width="320" height="30" as="geometry">
            <mxRectangle width="320" height="30" as="alternateBounds" />
          </mxGeometry>
        </mxCell>
        <mxCell id="17bObgYSpj2WF66oxN5m-110" value="" style="shape=tableRow;horizontal=0;startSize=0;swimlaneHead=0;swimlaneBody=0;fillColor=none;collapsible=0;dropTarget=0;points=[[0,0.5],[1,0.5]];portConstraint=eastwest;top=0;left=0;right=0;bottom=0;fontSize=16;" parent="17bObgYSpj2WF66oxN5m-85" vertex="1">
          <mxGeometry y="180" width="400" height="30" as="geometry" />
        </mxCell>
        <mxCell id="17bObgYSpj2WF66oxN5m-111" value="" style="shape=partialRectangle;connectable=0;fillColor=none;top=0;left=0;bottom=0;right=0;editable=1;overflow=hidden;whiteSpace=wrap;html=1;fontSize=16;" parent="17bObgYSpj2WF66oxN5m-110" vertex="1">
          <mxGeometry width="80" height="30" as="geometry">
            <mxRectangle width="80" height="30" as="alternateBounds" />
          </mxGeometry>
        </mxCell>
        <mxCell id="17bObgYSpj2WF66oxN5m-112" value="ST (State)" style="shape=partialRectangle;connectable=0;fillColor=none;top=0;left=0;bottom=0;right=0;align=left;spacingLeft=6;overflow=hidden;whiteSpace=wrap;html=1;fontSize=16;" parent="17bObgYSpj2WF66oxN5m-110" vertex="1">
          <mxGeometry x="80" width="320" height="30" as="geometry">
            <mxRectangle width="320" height="30" as="alternateBounds" />
          </mxGeometry>
        </mxCell>
        <mxCell id="17bObgYSpj2WF66oxN5m-104" value="" style="shape=tableRow;horizontal=0;startSize=0;swimlaneHead=0;swimlaneBody=0;fillColor=none;collapsible=0;dropTarget=0;points=[[0,0.5],[1,0.5]];portConstraint=eastwest;top=0;left=0;right=0;bottom=0;fontSize=16;" parent="17bObgYSpj2WF66oxN5m-85" vertex="1">
          <mxGeometry y="210" width="400" height="30" as="geometry" />
        </mxCell>
        <mxCell id="17bObgYSpj2WF66oxN5m-105" value="" style="shape=partialRectangle;connectable=0;fillColor=none;top=0;left=0;bottom=0;right=0;editable=1;overflow=hidden;whiteSpace=wrap;html=1;fontSize=16;" parent="17bObgYSpj2WF66oxN5m-104" vertex="1">
          <mxGeometry width="80" height="30" as="geometry">
            <mxRectangle width="80" height="30" as="alternateBounds" />
          </mxGeometry>
        </mxCell>
        <mxCell id="17bObgYSpj2WF66oxN5m-106" value="CN (Common Name)" style="shape=partialRectangle;connectable=0;fillColor=none;top=0;left=0;bottom=0;right=0;align=left;spacingLeft=6;overflow=hidden;whiteSpace=wrap;html=1;fontSize=16;" parent="17bObgYSpj2WF66oxN5m-104" vertex="1">
          <mxGeometry x="80" width="320" height="30" as="geometry">
            <mxRectangle width="320" height="30" as="alternateBounds" />
          </mxGeometry>
        </mxCell>
        <mxCell id="17bObgYSpj2WF66oxN5m-107" value="" style="shape=tableRow;horizontal=0;startSize=0;swimlaneHead=0;swimlaneBody=0;fillColor=none;collapsible=0;dropTarget=0;points=[[0,0.5],[1,0.5]];portConstraint=eastwest;top=0;left=0;right=0;bottom=0;fontSize=16;" parent="17bObgYSpj2WF66oxN5m-85" vertex="1">
          <mxGeometry y="240" width="400" height="30" as="geometry" />
        </mxCell>
        <mxCell id="17bObgYSpj2WF66oxN5m-108" value="" style="shape=partialRectangle;connectable=0;fillColor=none;top=0;left=0;bottom=0;right=0;editable=1;overflow=hidden;whiteSpace=wrap;html=1;fontSize=16;" parent="17bObgYSpj2WF66oxN5m-107" vertex="1">
          <mxGeometry width="80" height="30" as="geometry">
            <mxRectangle width="80" height="30" as="alternateBounds" />
          </mxGeometry>
        </mxCell>
        <mxCell id="17bObgYSpj2WF66oxN5m-109" value="OU (Organizational Unit)" style="shape=partialRectangle;connectable=0;fillColor=none;top=0;left=0;bottom=0;right=0;align=left;spacingLeft=6;overflow=hidden;whiteSpace=wrap;html=1;fontSize=16;" parent="17bObgYSpj2WF66oxN5m-107" vertex="1">
          <mxGeometry x="80" width="320" height="30" as="geometry">
            <mxRectangle width="320" height="30" as="alternateBounds" />
          </mxGeometry>
        </mxCell>
        <mxCell id="17bObgYSpj2WF66oxN5m-113" value="Issuer" style="shape=table;startSize=30;container=1;collapsible=1;childLayout=tableLayout;fixedRows=1;rowLines=0;fontStyle=1;align=center;resizeLast=1;html=1;fontSize=16;" parent="1" vertex="1">
          <mxGeometry x="-2190" y="-1710" width="390" height="200" as="geometry" />
        </mxCell>
        <mxCell id="17bObgYSpj2WF66oxN5m-114" value="" style="shape=tableRow;horizontal=0;startSize=0;swimlaneHead=0;swimlaneBody=0;fillColor=none;collapsible=0;dropTarget=0;points=[[0,0.5],[1,0.5]];portConstraint=eastwest;top=0;left=0;right=0;bottom=1;fontSize=16;" parent="17bObgYSpj2WF66oxN5m-113" vertex="1">
          <mxGeometry y="30" width="390" height="30" as="geometry" />
        </mxCell>
        <mxCell id="17bObgYSpj2WF66oxN5m-115" value="PK" style="shape=partialRectangle;connectable=0;fillColor=none;top=0;left=0;bottom=0;right=0;fontStyle=1;overflow=hidden;whiteSpace=wrap;html=1;fontSize=16;" parent="17bObgYSpj2WF66oxN5m-114" vertex="1">
          <mxGeometry width="80" height="30" as="geometry">
            <mxRectangle width="80" height="30" as="alternateBounds" />
          </mxGeometry>
        </mxCell>
        <mxCell id="17bObgYSpj2WF66oxN5m-116" value="issuer_id" style="shape=partialRectangle;connectable=0;fillColor=none;top=0;left=0;bottom=0;right=0;align=left;spacingLeft=6;fontStyle=5;overflow=hidden;whiteSpace=wrap;html=1;fontSize=16;" parent="17bObgYSpj2WF66oxN5m-114" vertex="1">
          <mxGeometry x="80" width="310" height="30" as="geometry">
            <mxRectangle width="310" height="30" as="alternateBounds" />
          </mxGeometry>
        </mxCell>
        <mxCell id="17bObgYSpj2WF66oxN5m-117" value="" style="shape=tableRow;horizontal=0;startSize=0;swimlaneHead=0;swimlaneBody=0;fillColor=none;collapsible=0;dropTarget=0;points=[[0,0.5],[1,0.5]];portConstraint=eastwest;top=0;left=0;right=0;bottom=0;fontSize=16;" parent="17bObgYSpj2WF66oxN5m-113" vertex="1">
          <mxGeometry y="60" width="390" height="30" as="geometry" />
        </mxCell>
        <mxCell id="17bObgYSpj2WF66oxN5m-118" value="" style="shape=partialRectangle;connectable=0;fillColor=none;top=0;left=0;bottom=0;right=0;editable=1;overflow=hidden;whiteSpace=wrap;html=1;fontSize=16;" parent="17bObgYSpj2WF66oxN5m-117" vertex="1">
          <mxGeometry width="80" height="30" as="geometry">
            <mxRectangle width="80" height="30" as="alternateBounds" />
          </mxGeometry>
        </mxCell>
        <mxCell id="17bObgYSpj2WF66oxN5m-119" value="C (Country)" style="shape=partialRectangle;connectable=0;fillColor=none;top=0;left=0;bottom=0;right=0;align=left;spacingLeft=6;overflow=hidden;whiteSpace=wrap;html=1;fontSize=16;" parent="17bObgYSpj2WF66oxN5m-117" vertex="1">
          <mxGeometry x="80" width="310" height="30" as="geometry">
            <mxRectangle width="310" height="30" as="alternateBounds" />
          </mxGeometry>
        </mxCell>
        <mxCell id="17bObgYSpj2WF66oxN5m-120" value="" style="shape=tableRow;horizontal=0;startSize=0;swimlaneHead=0;swimlaneBody=0;fillColor=none;collapsible=0;dropTarget=0;points=[[0,0.5],[1,0.5]];portConstraint=eastwest;top=0;left=0;right=0;bottom=0;fontSize=16;" parent="17bObgYSpj2WF66oxN5m-113" vertex="1">
          <mxGeometry y="90" width="390" height="30" as="geometry" />
        </mxCell>
        <mxCell id="17bObgYSpj2WF66oxN5m-121" value="" style="shape=partialRectangle;connectable=0;fillColor=none;top=0;left=0;bottom=0;right=0;editable=1;overflow=hidden;whiteSpace=wrap;html=1;fontSize=16;" parent="17bObgYSpj2WF66oxN5m-120" vertex="1">
          <mxGeometry width="80" height="30" as="geometry">
            <mxRectangle width="80" height="30" as="alternateBounds" />
          </mxGeometry>
        </mxCell>
        <mxCell id="17bObgYSpj2WF66oxN5m-122" value="O (Organization)" style="shape=partialRectangle;connectable=0;fillColor=none;top=0;left=0;bottom=0;right=0;align=left;spacingLeft=6;overflow=hidden;whiteSpace=wrap;html=1;fontSize=16;" parent="17bObgYSpj2WF66oxN5m-120" vertex="1">
          <mxGeometry x="80" width="310" height="30" as="geometry">
            <mxRectangle width="310" height="30" as="alternateBounds" />
          </mxGeometry>
        </mxCell>
        <mxCell id="17bObgYSpj2WF66oxN5m-123" value="" style="shape=tableRow;horizontal=0;startSize=0;swimlaneHead=0;swimlaneBody=0;fillColor=none;collapsible=0;dropTarget=0;points=[[0,0.5],[1,0.5]];portConstraint=eastwest;top=0;left=0;right=0;bottom=0;fontSize=16;" parent="17bObgYSpj2WF66oxN5m-113" vertex="1">
          <mxGeometry y="120" width="390" height="30" as="geometry" />
        </mxCell>
        <mxCell id="17bObgYSpj2WF66oxN5m-124" value="" style="shape=partialRectangle;connectable=0;fillColor=none;top=0;left=0;bottom=0;right=0;editable=1;overflow=hidden;whiteSpace=wrap;html=1;fontSize=16;" parent="17bObgYSpj2WF66oxN5m-123" vertex="1">
          <mxGeometry width="80" height="30" as="geometry">
            <mxRectangle width="80" height="30" as="alternateBounds" />
          </mxGeometry>
        </mxCell>
        <mxCell id="17bObgYSpj2WF66oxN5m-125" value="OU (Organizational Unit)" style="shape=partialRectangle;connectable=0;fillColor=none;top=0;left=0;bottom=0;right=0;align=left;spacingLeft=6;overflow=hidden;whiteSpace=wrap;html=1;fontSize=16;" parent="17bObgYSpj2WF66oxN5m-123" vertex="1">
          <mxGeometry x="80" width="310" height="30" as="geometry">
            <mxRectangle width="310" height="30" as="alternateBounds" />
          </mxGeometry>
        </mxCell>
        <mxCell id="17bObgYSpj2WF66oxN5m-126" value="" style="shape=tableRow;horizontal=0;startSize=0;swimlaneHead=0;swimlaneBody=0;fillColor=none;collapsible=0;dropTarget=0;points=[[0,0.5],[1,0.5]];portConstraint=eastwest;top=0;left=0;right=0;bottom=0;fontSize=16;" parent="17bObgYSpj2WF66oxN5m-113" vertex="1">
          <mxGeometry y="150" width="390" height="50" as="geometry" />
        </mxCell>
        <mxCell id="17bObgYSpj2WF66oxN5m-127" value="UNIQUE" style="shape=partialRectangle;connectable=0;fillColor=none;top=0;left=0;bottom=0;right=0;editable=1;overflow=hidden;whiteSpace=wrap;html=1;fontSize=16;" parent="17bObgYSpj2WF66oxN5m-126" vertex="1">
          <mxGeometry width="80" height="50" as="geometry">
            <mxRectangle width="80" height="50" as="alternateBounds" />
          </mxGeometry>
        </mxCell>
        <mxCell id="17bObgYSpj2WF66oxN5m-128" value="CN (Common Name)" style="shape=partialRectangle;connectable=0;fillColor=none;top=0;left=0;bottom=0;right=0;align=left;spacingLeft=6;overflow=hidden;whiteSpace=wrap;html=1;fontSize=16;" parent="17bObgYSpj2WF66oxN5m-126" vertex="1">
          <mxGeometry x="80" width="310" height="50" as="geometry">
            <mxRectangle width="310" height="50" as="alternateBounds" />
          </mxGeometry>
        </mxCell>
        <mxCell id="17bObgYSpj2WF66oxN5m-142" value="Public key Info" style="shape=table;startSize=30;container=1;collapsible=1;childLayout=tableLayout;fixedRows=1;rowLines=0;fontStyle=1;align=center;resizeLast=1;html=1;fontSize=16;" parent="1" vertex="1">
          <mxGeometry x="-2190" y="-1020" width="410" height="180" as="geometry" />
        </mxCell>
        <mxCell id="17bObgYSpj2WF66oxN5m-143" value="" style="shape=tableRow;horizontal=0;startSize=0;swimlaneHead=0;swimlaneBody=0;fillColor=none;collapsible=0;dropTarget=0;points=[[0,0.5],[1,0.5]];portConstraint=eastwest;top=0;left=0;right=0;bottom=1;fontSize=16;" parent="17bObgYSpj2WF66oxN5m-142" vertex="1">
          <mxGeometry y="30" width="410" height="30" as="geometry" />
        </mxCell>
        <mxCell id="17bObgYSpj2WF66oxN5m-144" value="PK" style="shape=partialRectangle;connectable=0;fillColor=none;top=0;left=0;bottom=0;right=0;fontStyle=1;overflow=hidden;whiteSpace=wrap;html=1;fontSize=16;" parent="17bObgYSpj2WF66oxN5m-143" vertex="1">
          <mxGeometry width="90" height="30" as="geometry">
            <mxRectangle width="90" height="30" as="alternateBounds" />
          </mxGeometry>
        </mxCell>
        <mxCell id="17bObgYSpj2WF66oxN5m-145" value="public_key" style="shape=partialRectangle;connectable=0;fillColor=none;top=0;left=0;bottom=0;right=0;align=left;spacingLeft=6;fontStyle=5;overflow=hidden;whiteSpace=wrap;html=1;fontSize=16;" parent="17bObgYSpj2WF66oxN5m-143" vertex="1">
          <mxGeometry x="90" width="320" height="30" as="geometry">
            <mxRectangle width="320" height="30" as="alternateBounds" />
          </mxGeometry>
        </mxCell>
        <mxCell id="17bObgYSpj2WF66oxN5m-146" value="" style="shape=tableRow;horizontal=0;startSize=0;swimlaneHead=0;swimlaneBody=0;fillColor=none;collapsible=0;dropTarget=0;points=[[0,0.5],[1,0.5]];portConstraint=eastwest;top=0;left=0;right=0;bottom=0;fontSize=16;" parent="17bObgYSpj2WF66oxN5m-142" vertex="1">
          <mxGeometry y="60" width="410" height="30" as="geometry" />
        </mxCell>
        <mxCell id="17bObgYSpj2WF66oxN5m-147" value="" style="shape=partialRectangle;connectable=0;fillColor=none;top=0;left=0;bottom=0;right=0;editable=1;overflow=hidden;whiteSpace=wrap;html=1;fontSize=16;" parent="17bObgYSpj2WF66oxN5m-146" vertex="1">
          <mxGeometry width="90" height="30" as="geometry">
            <mxRectangle width="90" height="30" as="alternateBounds" />
          </mxGeometry>
        </mxCell>
        <mxCell id="17bObgYSpj2WF66oxN5m-148" value="Key Algorithm" style="shape=partialRectangle;connectable=0;fillColor=none;top=0;left=0;bottom=0;right=0;align=left;spacingLeft=6;overflow=hidden;whiteSpace=wrap;html=1;fontSize=16;" parent="17bObgYSpj2WF66oxN5m-146" vertex="1">
          <mxGeometry x="90" width="320" height="30" as="geometry">
            <mxRectangle width="320" height="30" as="alternateBounds" />
          </mxGeometry>
        </mxCell>
        <mxCell id="17bObgYSpj2WF66oxN5m-149" value="" style="shape=tableRow;horizontal=0;startSize=0;swimlaneHead=0;swimlaneBody=0;fillColor=none;collapsible=0;dropTarget=0;points=[[0,0.5],[1,0.5]];portConstraint=eastwest;top=0;left=0;right=0;bottom=0;fontSize=16;" parent="17bObgYSpj2WF66oxN5m-142" vertex="1">
          <mxGeometry y="90" width="410" height="30" as="geometry" />
        </mxCell>
        <mxCell id="17bObgYSpj2WF66oxN5m-150" value="" style="shape=partialRectangle;connectable=0;fillColor=none;top=0;left=0;bottom=0;right=0;editable=1;overflow=hidden;whiteSpace=wrap;html=1;fontSize=16;" parent="17bObgYSpj2WF66oxN5m-149" vertex="1">
          <mxGeometry width="90" height="30" as="geometry">
            <mxRectangle width="90" height="30" as="alternateBounds" />
          </mxGeometry>
        </mxCell>
        <mxCell id="17bObgYSpj2WF66oxN5m-151" value="Key Parameters" style="shape=partialRectangle;connectable=0;fillColor=none;top=0;left=0;bottom=0;right=0;align=left;spacingLeft=6;overflow=hidden;whiteSpace=wrap;html=1;fontSize=16;" parent="17bObgYSpj2WF66oxN5m-149" vertex="1">
          <mxGeometry x="90" width="320" height="30" as="geometry">
            <mxRectangle width="320" height="30" as="alternateBounds" />
          </mxGeometry>
        </mxCell>
        <mxCell id="17bObgYSpj2WF66oxN5m-152" value="" style="shape=tableRow;horizontal=0;startSize=0;swimlaneHead=0;swimlaneBody=0;fillColor=none;collapsible=0;dropTarget=0;points=[[0,0.5],[1,0.5]];portConstraint=eastwest;top=0;left=0;right=0;bottom=0;fontSize=16;" parent="17bObgYSpj2WF66oxN5m-142" vertex="1">
          <mxGeometry y="120" width="410" height="30" as="geometry" />
        </mxCell>
        <mxCell id="17bObgYSpj2WF66oxN5m-153" value="" style="shape=partialRectangle;connectable=0;fillColor=none;top=0;left=0;bottom=0;right=0;editable=1;overflow=hidden;whiteSpace=wrap;html=1;fontSize=16;" parent="17bObgYSpj2WF66oxN5m-152" vertex="1">
          <mxGeometry width="90" height="30" as="geometry">
            <mxRectangle width="90" height="30" as="alternateBounds" />
          </mxGeometry>
        </mxCell>
        <mxCell id="17bObgYSpj2WF66oxN5m-154" value="Key Size" style="shape=partialRectangle;connectable=0;fillColor=none;top=0;left=0;bottom=0;right=0;align=left;spacingLeft=6;overflow=hidden;whiteSpace=wrap;html=1;fontSize=16;" parent="17bObgYSpj2WF66oxN5m-152" vertex="1">
          <mxGeometry x="90" width="320" height="30" as="geometry">
            <mxRectangle width="320" height="30" as="alternateBounds" />
          </mxGeometry>
        </mxCell>
        <mxCell id="17bObgYSpj2WF66oxN5m-155" value="" style="shape=tableRow;horizontal=0;startSize=0;swimlaneHead=0;swimlaneBody=0;fillColor=none;collapsible=0;dropTarget=0;points=[[0,0.5],[1,0.5]];portConstraint=eastwest;top=0;left=0;right=0;bottom=0;fontSize=16;" parent="17bObgYSpj2WF66oxN5m-142" vertex="1">
          <mxGeometry y="150" width="410" height="30" as="geometry" />
        </mxCell>
        <mxCell id="17bObgYSpj2WF66oxN5m-156" value="" style="shape=partialRectangle;connectable=0;fillColor=none;top=0;left=0;bottom=0;right=0;editable=1;overflow=hidden;whiteSpace=wrap;html=1;fontSize=16;" parent="17bObgYSpj2WF66oxN5m-155" vertex="1">
          <mxGeometry width="90" height="30" as="geometry">
            <mxRectangle width="90" height="30" as="alternateBounds" />
          </mxGeometry>
        </mxCell>
        <mxCell id="17bObgYSpj2WF66oxN5m-157" value="Key SHA1 Fingerprint" style="shape=partialRectangle;connectable=0;fillColor=none;top=0;left=0;bottom=0;right=0;align=left;spacingLeft=6;overflow=hidden;whiteSpace=wrap;html=1;fontSize=16;" parent="17bObgYSpj2WF66oxN5m-155" vertex="1">
          <mxGeometry x="90" width="320" height="30" as="geometry">
            <mxRectangle width="320" height="30" as="alternateBounds" />
          </mxGeometry>
        </mxCell>
        <mxCell id="17bObgYSpj2WF66oxN5m-161" value="Subject Key Identifier" style="shape=table;startSize=20;container=1;collapsible=1;childLayout=tableLayout;fixedRows=1;rowLines=0;fontStyle=1;align=center;resizeLast=1;html=1;fontSize=16;" parent="1" vertex="1">
          <mxGeometry x="-2180" y="-780" width="430" height="120" as="geometry" />
        </mxCell>
        <mxCell id="17bObgYSpj2WF66oxN5m-162" value="" style="shape=tableRow;horizontal=0;startSize=0;swimlaneHead=0;swimlaneBody=0;fillColor=none;collapsible=0;dropTarget=0;points=[[0,0.5],[1,0.5]];portConstraint=eastwest;top=0;left=0;right=0;bottom=1;fontSize=16;" parent="17bObgYSpj2WF66oxN5m-161" vertex="1">
          <mxGeometry y="20" width="430" height="30" as="geometry" />
        </mxCell>
        <mxCell id="17bObgYSpj2WF66oxN5m-163" value="PK" style="shape=partialRectangle;connectable=0;fillColor=none;top=0;left=0;bottom=0;right=0;fontStyle=1;overflow=hidden;whiteSpace=wrap;html=1;fontSize=16;" parent="17bObgYSpj2WF66oxN5m-162" vertex="1">
          <mxGeometry width="100" height="30" as="geometry">
            <mxRectangle width="100" height="30" as="alternateBounds" />
          </mxGeometry>
        </mxCell>
        <mxCell id="17bObgYSpj2WF66oxN5m-164" value="subject_key_id" style="shape=partialRectangle;connectable=0;fillColor=none;top=0;left=0;bottom=0;right=0;align=left;spacingLeft=6;fontStyle=5;overflow=hidden;whiteSpace=wrap;html=1;fontSize=16;" parent="17bObgYSpj2WF66oxN5m-162" vertex="1">
          <mxGeometry x="100" width="330" height="30" as="geometry">
            <mxRectangle width="330" height="30" as="alternateBounds" />
          </mxGeometry>
        </mxCell>
        <mxCell id="17bObgYSpj2WF66oxN5m-165" value="" style="shape=tableRow;horizontal=0;startSize=0;swimlaneHead=0;swimlaneBody=0;fillColor=none;collapsible=0;dropTarget=0;points=[[0,0.5],[1,0.5]];portConstraint=eastwest;top=0;left=0;right=0;bottom=0;fontSize=16;" parent="17bObgYSpj2WF66oxN5m-161" vertex="1">
          <mxGeometry y="50" width="430" height="30" as="geometry" />
        </mxCell>
        <mxCell id="17bObgYSpj2WF66oxN5m-166" value="" style="shape=partialRectangle;connectable=0;fillColor=none;top=0;left=0;bottom=0;right=0;editable=1;overflow=hidden;whiteSpace=wrap;html=1;fontSize=16;" parent="17bObgYSpj2WF66oxN5m-165" vertex="1">
          <mxGeometry width="100" height="30" as="geometry">
            <mxRectangle width="100" height="30" as="alternateBounds" />
          </mxGeometry>
        </mxCell>
        <mxCell id="17bObgYSpj2WF66oxN5m-167" value="Key Identifier" style="shape=partialRectangle;connectable=0;fillColor=none;top=0;left=0;bottom=0;right=0;align=left;spacingLeft=6;overflow=hidden;whiteSpace=wrap;html=1;fontSize=16;" parent="17bObgYSpj2WF66oxN5m-165" vertex="1">
          <mxGeometry x="100" width="330" height="30" as="geometry">
            <mxRectangle width="330" height="30" as="alternateBounds" />
          </mxGeometry>
        </mxCell>
        <mxCell id="17bObgYSpj2WF66oxN5m-168" value="" style="shape=tableRow;horizontal=0;startSize=0;swimlaneHead=0;swimlaneBody=0;fillColor=none;collapsible=0;dropTarget=0;points=[[0,0.5],[1,0.5]];portConstraint=eastwest;top=0;left=0;right=0;bottom=0;fontSize=16;" parent="17bObgYSpj2WF66oxN5m-161" vertex="1">
          <mxGeometry y="80" width="430" height="30" as="geometry" />
        </mxCell>
        <mxCell id="17bObgYSpj2WF66oxN5m-169" value="" style="shape=partialRectangle;connectable=0;fillColor=none;top=0;left=0;bottom=0;right=0;editable=1;overflow=hidden;whiteSpace=wrap;html=1;fontSize=16;" parent="17bObgYSpj2WF66oxN5m-168" vertex="1">
          <mxGeometry width="100" height="30" as="geometry">
            <mxRectangle width="100" height="30" as="alternateBounds" />
          </mxGeometry>
        </mxCell>
        <mxCell id="17bObgYSpj2WF66oxN5m-170" value="critical" style="shape=partialRectangle;connectable=0;fillColor=none;top=0;left=0;bottom=0;right=0;align=left;spacingLeft=6;overflow=hidden;whiteSpace=wrap;html=1;fontSize=16;" parent="17bObgYSpj2WF66oxN5m-168" vertex="1">
          <mxGeometry x="100" width="330" height="30" as="geometry">
            <mxRectangle width="330" height="30" as="alternateBounds" />
          </mxGeometry>
        </mxCell>
        <mxCell id="17bObgYSpj2WF66oxN5m-174" value="Basic Constraints" style="shape=table;startSize=30;container=1;collapsible=1;childLayout=tableLayout;fixedRows=1;rowLines=0;fontStyle=1;align=center;resizeLast=1;html=1;fontSize=16;" parent="1" vertex="1">
          <mxGeometry x="-2120" y="-470" width="350" height="150" as="geometry" />
        </mxCell>
        <mxCell id="17bObgYSpj2WF66oxN5m-175" value="" style="shape=tableRow;horizontal=0;startSize=0;swimlaneHead=0;swimlaneBody=0;fillColor=none;collapsible=0;dropTarget=0;points=[[0,0.5],[1,0.5]];portConstraint=eastwest;top=0;left=0;right=0;bottom=1;fontSize=16;" parent="17bObgYSpj2WF66oxN5m-174" vertex="1">
          <mxGeometry y="30" width="350" height="30" as="geometry" />
        </mxCell>
        <mxCell id="17bObgYSpj2WF66oxN5m-176" value="PK" style="shape=partialRectangle;connectable=0;fillColor=none;top=0;left=0;bottom=0;right=0;fontStyle=1;overflow=hidden;whiteSpace=wrap;html=1;fontSize=16;" parent="17bObgYSpj2WF66oxN5m-175" vertex="1">
          <mxGeometry width="70" height="30" as="geometry">
            <mxRectangle width="70" height="30" as="alternateBounds" />
          </mxGeometry>
        </mxCell>
        <mxCell id="17bObgYSpj2WF66oxN5m-177" value="basic_constraints_id" style="shape=partialRectangle;connectable=0;fillColor=none;top=0;left=0;bottom=0;right=0;align=left;spacingLeft=6;fontStyle=5;overflow=hidden;whiteSpace=wrap;html=1;fontSize=16;" parent="17bObgYSpj2WF66oxN5m-175" vertex="1">
          <mxGeometry x="70" width="280" height="30" as="geometry">
            <mxRectangle width="280" height="30" as="alternateBounds" />
          </mxGeometry>
        </mxCell>
        <mxCell id="17bObgYSpj2WF66oxN5m-178" value="" style="shape=tableRow;horizontal=0;startSize=0;swimlaneHead=0;swimlaneBody=0;fillColor=none;collapsible=0;dropTarget=0;points=[[0,0.5],[1,0.5]];portConstraint=eastwest;top=0;left=0;right=0;bottom=0;fontSize=16;" parent="17bObgYSpj2WF66oxN5m-174" vertex="1">
          <mxGeometry y="60" width="350" height="30" as="geometry" />
        </mxCell>
        <mxCell id="17bObgYSpj2WF66oxN5m-179" value="" style="shape=partialRectangle;connectable=0;fillColor=none;top=0;left=0;bottom=0;right=0;editable=1;overflow=hidden;whiteSpace=wrap;html=1;fontSize=16;" parent="17bObgYSpj2WF66oxN5m-178" vertex="1">
          <mxGeometry width="70" height="30" as="geometry">
            <mxRectangle width="70" height="30" as="alternateBounds" />
          </mxGeometry>
        </mxCell>
        <mxCell id="17bObgYSpj2WF66oxN5m-180" value="Certificate Authority" style="shape=partialRectangle;connectable=0;fillColor=none;top=0;left=0;bottom=0;right=0;align=left;spacingLeft=6;overflow=hidden;whiteSpace=wrap;html=1;fontSize=16;" parent="17bObgYSpj2WF66oxN5m-178" vertex="1">
          <mxGeometry x="70" width="280" height="30" as="geometry">
            <mxRectangle width="280" height="30" as="alternateBounds" />
          </mxGeometry>
        </mxCell>
        <mxCell id="17bObgYSpj2WF66oxN5m-181" value="" style="shape=tableRow;horizontal=0;startSize=0;swimlaneHead=0;swimlaneBody=0;fillColor=none;collapsible=0;dropTarget=0;points=[[0,0.5],[1,0.5]];portConstraint=eastwest;top=0;left=0;right=0;bottom=0;fontSize=16;" parent="17bObgYSpj2WF66oxN5m-174" vertex="1">
          <mxGeometry y="90" width="350" height="30" as="geometry" />
        </mxCell>
        <mxCell id="17bObgYSpj2WF66oxN5m-182" value="" style="shape=partialRectangle;connectable=0;fillColor=none;top=0;left=0;bottom=0;right=0;editable=1;overflow=hidden;whiteSpace=wrap;html=1;fontSize=16;" parent="17bObgYSpj2WF66oxN5m-181" vertex="1">
          <mxGeometry width="70" height="30" as="geometry">
            <mxRectangle width="70" height="30" as="alternateBounds" />
          </mxGeometry>
        </mxCell>
        <mxCell id="17bObgYSpj2WF66oxN5m-183" value="Max Path Length" style="shape=partialRectangle;connectable=0;fillColor=none;top=0;left=0;bottom=0;right=0;align=left;spacingLeft=6;overflow=hidden;whiteSpace=wrap;html=1;fontSize=16;" parent="17bObgYSpj2WF66oxN5m-181" vertex="1">
          <mxGeometry x="70" width="280" height="30" as="geometry">
            <mxRectangle width="280" height="30" as="alternateBounds" />
          </mxGeometry>
        </mxCell>
        <mxCell id="17bObgYSpj2WF66oxN5m-184" value="" style="shape=tableRow;horizontal=0;startSize=0;swimlaneHead=0;swimlaneBody=0;fillColor=none;collapsible=0;dropTarget=0;points=[[0,0.5],[1,0.5]];portConstraint=eastwest;top=0;left=0;right=0;bottom=0;fontSize=16;" parent="17bObgYSpj2WF66oxN5m-174" vertex="1">
          <mxGeometry y="120" width="350" height="30" as="geometry" />
        </mxCell>
        <mxCell id="17bObgYSpj2WF66oxN5m-185" value="" style="shape=partialRectangle;connectable=0;fillColor=none;top=0;left=0;bottom=0;right=0;editable=1;overflow=hidden;whiteSpace=wrap;html=1;fontSize=16;" parent="17bObgYSpj2WF66oxN5m-184" vertex="1">
          <mxGeometry width="70" height="30" as="geometry">
            <mxRectangle width="70" height="30" as="alternateBounds" />
          </mxGeometry>
        </mxCell>
        <mxCell id="17bObgYSpj2WF66oxN5m-186" value="Critical" style="shape=partialRectangle;connectable=0;fillColor=none;top=0;left=0;bottom=0;right=0;align=left;spacingLeft=6;overflow=hidden;whiteSpace=wrap;html=1;fontSize=16;" parent="17bObgYSpj2WF66oxN5m-184" vertex="1">
          <mxGeometry x="70" width="280" height="30" as="geometry">
            <mxRectangle width="280" height="30" as="alternateBounds" />
          </mxGeometry>
        </mxCell>
        <mxCell id="17bObgYSpj2WF66oxN5m-187" value="Extended Key Usage" style="shape=table;startSize=30;container=1;collapsible=1;childLayout=tableLayout;fixedRows=1;rowLines=0;fontStyle=1;align=center;resizeLast=1;html=1;fontSize=16;" parent="1" vertex="1">
          <mxGeometry x="-2090" y="-620" width="335" height="120" as="geometry" />
        </mxCell>
        <mxCell id="17bObgYSpj2WF66oxN5m-188" value="" style="shape=tableRow;horizontal=0;startSize=0;swimlaneHead=0;swimlaneBody=0;fillColor=none;collapsible=0;dropTarget=0;points=[[0,0.5],[1,0.5]];portConstraint=eastwest;top=0;left=0;right=0;bottom=1;fontSize=16;" parent="17bObgYSpj2WF66oxN5m-187" vertex="1">
          <mxGeometry y="30" width="335" height="30" as="geometry" />
        </mxCell>
        <mxCell id="17bObgYSpj2WF66oxN5m-189" value="PK" style="shape=partialRectangle;connectable=0;fillColor=none;top=0;left=0;bottom=0;right=0;fontStyle=1;overflow=hidden;whiteSpace=wrap;html=1;fontSize=16;" parent="17bObgYSpj2WF66oxN5m-188" vertex="1">
          <mxGeometry width="90" height="30" as="geometry">
            <mxRectangle width="90" height="30" as="alternateBounds" />
          </mxGeometry>
        </mxCell>
        <mxCell id="17bObgYSpj2WF66oxN5m-190" value="extended_usage_id" style="shape=partialRectangle;connectable=0;fillColor=none;top=0;left=0;bottom=0;right=0;align=left;spacingLeft=6;fontStyle=5;overflow=hidden;whiteSpace=wrap;html=1;fontSize=16;" parent="17bObgYSpj2WF66oxN5m-188" vertex="1">
          <mxGeometry x="90" width="245" height="30" as="geometry">
            <mxRectangle width="245" height="30" as="alternateBounds" />
          </mxGeometry>
        </mxCell>
        <mxCell id="17bObgYSpj2WF66oxN5m-191" value="" style="shape=tableRow;horizontal=0;startSize=0;swimlaneHead=0;swimlaneBody=0;fillColor=none;collapsible=0;dropTarget=0;points=[[0,0.5],[1,0.5]];portConstraint=eastwest;top=0;left=0;right=0;bottom=0;fontSize=16;" parent="17bObgYSpj2WF66oxN5m-187" vertex="1">
          <mxGeometry y="60" width="335" height="30" as="geometry" />
        </mxCell>
        <mxCell id="17bObgYSpj2WF66oxN5m-192" value="" style="shape=partialRectangle;connectable=0;fillColor=none;top=0;left=0;bottom=0;right=0;editable=1;overflow=hidden;whiteSpace=wrap;html=1;fontSize=16;" parent="17bObgYSpj2WF66oxN5m-191" vertex="1">
          <mxGeometry width="90" height="30" as="geometry">
            <mxRectangle width="90" height="30" as="alternateBounds" />
          </mxGeometry>
        </mxCell>
        <mxCell id="17bObgYSpj2WF66oxN5m-193" value="Allowed Purposes" style="shape=partialRectangle;connectable=0;fillColor=none;top=0;left=0;bottom=0;right=0;align=left;spacingLeft=6;overflow=hidden;whiteSpace=wrap;html=1;fontSize=16;" parent="17bObgYSpj2WF66oxN5m-191" vertex="1">
          <mxGeometry x="90" width="245" height="30" as="geometry">
            <mxRectangle width="245" height="30" as="alternateBounds" />
          </mxGeometry>
        </mxCell>
        <mxCell id="17bObgYSpj2WF66oxN5m-194" value="" style="shape=tableRow;horizontal=0;startSize=0;swimlaneHead=0;swimlaneBody=0;fillColor=none;collapsible=0;dropTarget=0;points=[[0,0.5],[1,0.5]];portConstraint=eastwest;top=0;left=0;right=0;bottom=0;fontSize=16;" parent="17bObgYSpj2WF66oxN5m-187" vertex="1">
          <mxGeometry y="90" width="335" height="30" as="geometry" />
        </mxCell>
        <mxCell id="17bObgYSpj2WF66oxN5m-195" value="" style="shape=partialRectangle;connectable=0;fillColor=none;top=0;left=0;bottom=0;right=0;editable=1;overflow=hidden;whiteSpace=wrap;html=1;fontSize=16;" parent="17bObgYSpj2WF66oxN5m-194" vertex="1">
          <mxGeometry width="90" height="30" as="geometry">
            <mxRectangle width="90" height="30" as="alternateBounds" />
          </mxGeometry>
        </mxCell>
        <mxCell id="17bObgYSpj2WF66oxN5m-196" value="Critical" style="shape=partialRectangle;connectable=0;fillColor=none;top=0;left=0;bottom=0;right=0;align=left;spacingLeft=6;overflow=hidden;whiteSpace=wrap;html=1;fontSize=16;" parent="17bObgYSpj2WF66oxN5m-194" vertex="1">
          <mxGeometry x="90" width="245" height="30" as="geometry">
            <mxRectangle width="245" height="30" as="alternateBounds" />
          </mxGeometry>
        </mxCell>
        <mxCell id="17bObgYSpj2WF66oxN5m-200" value="Key Usage" style="shape=table;startSize=30;container=1;collapsible=1;childLayout=tableLayout;fixedRows=1;rowLines=0;fontStyle=1;align=center;resizeLast=1;html=1;fontSize=16;" parent="1" vertex="1">
          <mxGeometry x="-2090" y="-280" width="260" height="120" as="geometry" />
        </mxCell>
        <mxCell id="17bObgYSpj2WF66oxN5m-201" value="" style="shape=tableRow;horizontal=0;startSize=0;swimlaneHead=0;swimlaneBody=0;fillColor=none;collapsible=0;dropTarget=0;points=[[0,0.5],[1,0.5]];portConstraint=eastwest;top=0;left=0;right=0;bottom=1;fontSize=16;" parent="17bObgYSpj2WF66oxN5m-200" vertex="1">
          <mxGeometry y="30" width="260" height="30" as="geometry" />
        </mxCell>
        <mxCell id="17bObgYSpj2WF66oxN5m-202" value="PK" style="shape=partialRectangle;connectable=0;fillColor=none;top=0;left=0;bottom=0;right=0;fontStyle=1;overflow=hidden;whiteSpace=wrap;html=1;fontSize=16;" parent="17bObgYSpj2WF66oxN5m-201" vertex="1">
          <mxGeometry width="70" height="30" as="geometry">
            <mxRectangle width="70" height="30" as="alternateBounds" />
          </mxGeometry>
        </mxCell>
        <mxCell id="17bObgYSpj2WF66oxN5m-203" value="key_usage_id" style="shape=partialRectangle;connectable=0;fillColor=none;top=0;left=0;bottom=0;right=0;align=left;spacingLeft=6;fontStyle=5;overflow=hidden;whiteSpace=wrap;html=1;fontSize=16;" parent="17bObgYSpj2WF66oxN5m-201" vertex="1">
          <mxGeometry x="70" width="190" height="30" as="geometry">
            <mxRectangle width="190" height="30" as="alternateBounds" />
          </mxGeometry>
        </mxCell>
        <mxCell id="17bObgYSpj2WF66oxN5m-204" value="" style="shape=tableRow;horizontal=0;startSize=0;swimlaneHead=0;swimlaneBody=0;fillColor=none;collapsible=0;dropTarget=0;points=[[0,0.5],[1,0.5]];portConstraint=eastwest;top=0;left=0;right=0;bottom=0;fontSize=16;" parent="17bObgYSpj2WF66oxN5m-200" vertex="1">
          <mxGeometry y="60" width="260" height="30" as="geometry" />
        </mxCell>
        <mxCell id="17bObgYSpj2WF66oxN5m-205" value="" style="shape=partialRectangle;connectable=0;fillColor=none;top=0;left=0;bottom=0;right=0;editable=1;overflow=hidden;whiteSpace=wrap;html=1;fontSize=16;" parent="17bObgYSpj2WF66oxN5m-204" vertex="1">
          <mxGeometry width="70" height="30" as="geometry">
            <mxRectangle width="70" height="30" as="alternateBounds" />
          </mxGeometry>
        </mxCell>
        <mxCell id="17bObgYSpj2WF66oxN5m-206" value="Usages" style="shape=partialRectangle;connectable=0;fillColor=none;top=0;left=0;bottom=0;right=0;align=left;spacingLeft=6;overflow=hidden;whiteSpace=wrap;html=1;fontSize=16;" parent="17bObgYSpj2WF66oxN5m-204" vertex="1">
          <mxGeometry x="70" width="190" height="30" as="geometry">
            <mxRectangle width="190" height="30" as="alternateBounds" />
          </mxGeometry>
        </mxCell>
        <mxCell id="17bObgYSpj2WF66oxN5m-210" value="" style="shape=tableRow;horizontal=0;startSize=0;swimlaneHead=0;swimlaneBody=0;fillColor=none;collapsible=0;dropTarget=0;points=[[0,0.5],[1,0.5]];portConstraint=eastwest;top=0;left=0;right=0;bottom=0;fontSize=16;" parent="17bObgYSpj2WF66oxN5m-200" vertex="1">
          <mxGeometry y="90" width="260" height="30" as="geometry" />
        </mxCell>
        <mxCell id="17bObgYSpj2WF66oxN5m-211" value="" style="shape=partialRectangle;connectable=0;fillColor=none;top=0;left=0;bottom=0;right=0;editable=1;overflow=hidden;whiteSpace=wrap;html=1;fontSize=16;" parent="17bObgYSpj2WF66oxN5m-210" vertex="1">
          <mxGeometry width="70" height="30" as="geometry">
            <mxRectangle width="70" height="30" as="alternateBounds" />
          </mxGeometry>
        </mxCell>
        <mxCell id="17bObgYSpj2WF66oxN5m-212" value="Critical" style="shape=partialRectangle;connectable=0;fillColor=none;top=0;left=0;bottom=0;right=0;align=left;spacingLeft=6;overflow=hidden;whiteSpace=wrap;html=1;fontSize=16;" parent="17bObgYSpj2WF66oxN5m-210" vertex="1">
          <mxGeometry x="70" width="190" height="30" as="geometry">
            <mxRectangle width="190" height="30" as="alternateBounds" />
          </mxGeometry>
        </mxCell>
        <mxCell id="17bObgYSpj2WF66oxN5m-226" value="Signature" style="shape=table;startSize=30;container=1;collapsible=1;childLayout=tableLayout;fixedRows=1;rowLines=0;fontStyle=1;align=center;resizeLast=1;html=1;fontSize=16;" parent="1" vertex="1">
          <mxGeometry x="-2090" y="-100" width="270" height="120" as="geometry" />
        </mxCell>
        <mxCell id="17bObgYSpj2WF66oxN5m-227" value="" style="shape=tableRow;horizontal=0;startSize=0;swimlaneHead=0;swimlaneBody=0;fillColor=none;collapsible=0;dropTarget=0;points=[[0,0.5],[1,0.5]];portConstraint=eastwest;top=0;left=0;right=0;bottom=1;fontSize=16;" parent="17bObgYSpj2WF66oxN5m-226" vertex="1">
          <mxGeometry y="30" width="270" height="30" as="geometry" />
        </mxCell>
        <mxCell id="17bObgYSpj2WF66oxN5m-228" value="PK" style="shape=partialRectangle;connectable=0;fillColor=none;top=0;left=0;bottom=0;right=0;fontStyle=1;overflow=hidden;whiteSpace=wrap;html=1;fontSize=16;" parent="17bObgYSpj2WF66oxN5m-227" vertex="1">
          <mxGeometry width="70" height="30" as="geometry">
            <mxRectangle width="70" height="30" as="alternateBounds" />
          </mxGeometry>
        </mxCell>
        <mxCell id="17bObgYSpj2WF66oxN5m-229" value="signature" style="shape=partialRectangle;connectable=0;fillColor=none;top=0;left=0;bottom=0;right=0;align=left;spacingLeft=6;fontStyle=5;overflow=hidden;whiteSpace=wrap;html=1;fontSize=16;" parent="17bObgYSpj2WF66oxN5m-227" vertex="1">
          <mxGeometry x="70" width="200" height="30" as="geometry">
            <mxRectangle width="200" height="30" as="alternateBounds" />
          </mxGeometry>
        </mxCell>
        <mxCell id="17bObgYSpj2WF66oxN5m-230" value="" style="shape=tableRow;horizontal=0;startSize=0;swimlaneHead=0;swimlaneBody=0;fillColor=none;collapsible=0;dropTarget=0;points=[[0,0.5],[1,0.5]];portConstraint=eastwest;top=0;left=0;right=0;bottom=0;fontSize=16;" parent="17bObgYSpj2WF66oxN5m-226" vertex="1">
          <mxGeometry y="60" width="270" height="30" as="geometry" />
        </mxCell>
        <mxCell id="17bObgYSpj2WF66oxN5m-231" value="" style="shape=partialRectangle;connectable=0;fillColor=none;top=0;left=0;bottom=0;right=0;editable=1;overflow=hidden;whiteSpace=wrap;html=1;fontSize=16;" parent="17bObgYSpj2WF66oxN5m-230" vertex="1">
          <mxGeometry width="70" height="30" as="geometry">
            <mxRectangle width="70" height="30" as="alternateBounds" />
          </mxGeometry>
        </mxCell>
        <mxCell id="17bObgYSpj2WF66oxN5m-232" value="Signature Algorithm" style="shape=partialRectangle;connectable=0;fillColor=none;top=0;left=0;bottom=0;right=0;align=left;spacingLeft=6;overflow=hidden;whiteSpace=wrap;html=1;fontSize=16;" parent="17bObgYSpj2WF66oxN5m-230" vertex="1">
          <mxGeometry x="70" width="200" height="30" as="geometry">
            <mxRectangle width="200" height="30" as="alternateBounds" />
          </mxGeometry>
        </mxCell>
        <mxCell id="17bObgYSpj2WF66oxN5m-233" value="" style="shape=tableRow;horizontal=0;startSize=0;swimlaneHead=0;swimlaneBody=0;fillColor=none;collapsible=0;dropTarget=0;points=[[0,0.5],[1,0.5]];portConstraint=eastwest;top=0;left=0;right=0;bottom=0;fontSize=16;" parent="17bObgYSpj2WF66oxN5m-226" vertex="1">
          <mxGeometry y="90" width="270" height="30" as="geometry" />
        </mxCell>
        <mxCell id="17bObgYSpj2WF66oxN5m-234" value="" style="shape=partialRectangle;connectable=0;fillColor=none;top=0;left=0;bottom=0;right=0;editable=1;overflow=hidden;whiteSpace=wrap;html=1;fontSize=16;" parent="17bObgYSpj2WF66oxN5m-233" vertex="1">
          <mxGeometry width="70" height="30" as="geometry">
            <mxRectangle width="70" height="30" as="alternateBounds" />
          </mxGeometry>
        </mxCell>
        <mxCell id="17bObgYSpj2WF66oxN5m-235" value="Signature Parameters" style="shape=partialRectangle;connectable=0;fillColor=none;top=0;left=0;bottom=0;right=0;align=left;spacingLeft=6;overflow=hidden;whiteSpace=wrap;html=1;fontSize=16;" parent="17bObgYSpj2WF66oxN5m-233" vertex="1">
          <mxGeometry x="70" width="200" height="30" as="geometry">
            <mxRectangle width="200" height="30" as="alternateBounds" />
          </mxGeometry>
        </mxCell>
        <mxCell id="17bObgYSpj2WF66oxN5m-240" value="Certificate request" style="shape=table;startSize=30;container=1;collapsible=1;childLayout=tableLayout;fixedRows=1;rowLines=0;fontStyle=1;align=center;resizeLast=1;html=1;fontSize=16;" parent="1" vertex="1">
          <mxGeometry x="-3260" y="-1320" width="510" height="360" as="geometry" />
        </mxCell>
        <mxCell id="17bObgYSpj2WF66oxN5m-241" value="" style="shape=tableRow;horizontal=0;startSize=0;swimlaneHead=0;swimlaneBody=0;fillColor=none;collapsible=0;dropTarget=0;points=[[0,0.5],[1,0.5]];portConstraint=eastwest;top=0;left=0;right=0;bottom=1;fontSize=16;" parent="17bObgYSpj2WF66oxN5m-240" vertex="1">
          <mxGeometry y="30" width="510" height="30" as="geometry" />
        </mxCell>
        <mxCell id="17bObgYSpj2WF66oxN5m-242" value="PK" style="shape=partialRectangle;connectable=0;fillColor=none;top=0;left=0;bottom=0;right=0;fontStyle=1;overflow=hidden;whiteSpace=wrap;html=1;fontSize=16;" parent="17bObgYSpj2WF66oxN5m-241" vertex="1">
          <mxGeometry width="90" height="30" as="geometry">
            <mxRectangle width="90" height="30" as="alternateBounds" />
          </mxGeometry>
        </mxCell>
        <mxCell id="17bObgYSpj2WF66oxN5m-243" value="request_id" style="shape=partialRectangle;connectable=0;fillColor=none;top=0;left=0;bottom=0;right=0;align=left;spacingLeft=6;fontStyle=5;overflow=hidden;whiteSpace=wrap;html=1;fontSize=16;" parent="17bObgYSpj2WF66oxN5m-241" vertex="1">
          <mxGeometry x="90" width="420" height="30" as="geometry">
            <mxRectangle width="420" height="30" as="alternateBounds" />
          </mxGeometry>
        </mxCell>
        <mxCell id="17bObgYSpj2WF66oxN5m-244" value="" style="shape=tableRow;horizontal=0;startSize=0;swimlaneHead=0;swimlaneBody=0;fillColor=none;collapsible=0;dropTarget=0;points=[[0,0.5],[1,0.5]];portConstraint=eastwest;top=0;left=0;right=0;bottom=0;fontSize=16;" parent="17bObgYSpj2WF66oxN5m-240" vertex="1">
          <mxGeometry y="60" width="510" height="30" as="geometry" />
        </mxCell>
        <mxCell id="17bObgYSpj2WF66oxN5m-245" value="FK 2" style="shape=partialRectangle;connectable=0;fillColor=none;top=0;left=0;bottom=0;right=0;editable=1;overflow=hidden;whiteSpace=wrap;html=1;fontSize=16;" parent="17bObgYSpj2WF66oxN5m-244" vertex="1">
          <mxGeometry width="90" height="30" as="geometry">
            <mxRectangle width="90" height="30" as="alternateBounds" />
          </mxGeometry>
        </mxCell>
        <mxCell id="17bObgYSpj2WF66oxN5m-246" value="issuer_id" style="shape=partialRectangle;connectable=0;fillColor=none;top=0;left=0;bottom=0;right=0;align=left;spacingLeft=6;overflow=hidden;whiteSpace=wrap;html=1;fontSize=16;" parent="17bObgYSpj2WF66oxN5m-244" vertex="1">
          <mxGeometry x="90" width="420" height="30" as="geometry">
            <mxRectangle width="420" height="30" as="alternateBounds" />
          </mxGeometry>
        </mxCell>
        <mxCell id="jJHuSSU_93GH472XAZiS-13" value="" style="shape=tableRow;horizontal=0;startSize=0;swimlaneHead=0;swimlaneBody=0;fillColor=none;collapsible=0;dropTarget=0;points=[[0,0.5],[1,0.5]];portConstraint=eastwest;top=0;left=0;right=0;bottom=0;fontSize=16;" parent="17bObgYSpj2WF66oxN5m-240" vertex="1">
          <mxGeometry y="90" width="510" height="30" as="geometry" />
        </mxCell>
        <mxCell id="jJHuSSU_93GH472XAZiS-14" value="FK 1" style="shape=partialRectangle;connectable=0;fillColor=none;top=0;left=0;bottom=0;right=0;editable=1;overflow=hidden;whiteSpace=wrap;html=1;fontSize=16;" parent="jJHuSSU_93GH472XAZiS-13" vertex="1">
          <mxGeometry width="90" height="30" as="geometry">
            <mxRectangle width="90" height="30" as="alternateBounds" />
          </mxGeometry>
        </mxCell>
        <mxCell id="jJHuSSU_93GH472XAZiS-15" value="subj_serial_number" style="shape=partialRectangle;connectable=0;fillColor=none;top=0;left=0;bottom=0;right=0;align=left;spacingLeft=6;overflow=hidden;whiteSpace=wrap;html=1;fontSize=16;" parent="jJHuSSU_93GH472XAZiS-13" vertex="1">
          <mxGeometry x="90" width="420" height="30" as="geometry">
            <mxRectangle width="420" height="30" as="alternateBounds" />
          </mxGeometry>
        </mxCell>
        <mxCell id="17bObgYSpj2WF66oxN5m-247" value="" style="shape=tableRow;horizontal=0;startSize=0;swimlaneHead=0;swimlaneBody=0;fillColor=none;collapsible=0;dropTarget=0;points=[[0,0.5],[1,0.5]];portConstraint=eastwest;top=0;left=0;right=0;bottom=0;fontSize=16;" parent="17bObgYSpj2WF66oxN5m-240" vertex="1">
          <mxGeometry y="120" width="510" height="30" as="geometry" />
        </mxCell>
        <mxCell id="17bObgYSpj2WF66oxN5m-248" value="" style="shape=partialRectangle;connectable=0;fillColor=none;top=0;left=0;bottom=0;right=0;editable=1;overflow=hidden;whiteSpace=wrap;html=1;fontSize=16;" parent="17bObgYSpj2WF66oxN5m-247" vertex="1">
          <mxGeometry width="90" height="30" as="geometry">
            <mxRectangle width="90" height="30" as="alternateBounds" />
          </mxGeometry>
        </mxCell>
        <mxCell id="17bObgYSpj2WF66oxN5m-249" value="version" style="shape=partialRectangle;connectable=0;fillColor=none;top=0;left=0;bottom=0;right=0;align=left;spacingLeft=6;overflow=hidden;whiteSpace=wrap;html=1;fontSize=16;" parent="17bObgYSpj2WF66oxN5m-247" vertex="1">
          <mxGeometry x="90" width="420" height="30" as="geometry">
            <mxRectangle width="420" height="30" as="alternateBounds" />
          </mxGeometry>
        </mxCell>
        <mxCell id="17bObgYSpj2WF66oxN5m-250" value="" style="shape=tableRow;horizontal=0;startSize=0;swimlaneHead=0;swimlaneBody=0;fillColor=none;collapsible=0;dropTarget=0;points=[[0,0.5],[1,0.5]];portConstraint=eastwest;top=0;left=0;right=0;bottom=0;fontSize=16;" parent="17bObgYSpj2WF66oxN5m-240" vertex="1">
          <mxGeometry y="150" width="510" height="30" as="geometry" />
        </mxCell>
        <mxCell id="17bObgYSpj2WF66oxN5m-251" value="" style="shape=partialRectangle;connectable=0;fillColor=none;top=0;left=0;bottom=0;right=0;editable=1;overflow=hidden;whiteSpace=wrap;html=1;fontSize=16;" parent="17bObgYSpj2WF66oxN5m-250" vertex="1">
          <mxGeometry width="90" height="30" as="geometry">
            <mxRectangle width="90" height="30" as="alternateBounds" />
          </mxGeometry>
        </mxCell>
        <mxCell id="17bObgYSpj2WF66oxN5m-252" value="type" style="shape=partialRectangle;connectable=0;fillColor=none;top=0;left=0;bottom=0;right=0;align=left;spacingLeft=6;overflow=hidden;whiteSpace=wrap;html=1;fontSize=16;" parent="17bObgYSpj2WF66oxN5m-250" vertex="1">
          <mxGeometry x="90" width="420" height="30" as="geometry">
            <mxRectangle width="420" height="30" as="alternateBounds" />
          </mxGeometry>
        </mxCell>
        <mxCell id="17bObgYSpj2WF66oxN5m-269" value="" style="shape=tableRow;horizontal=0;startSize=0;swimlaneHead=0;swimlaneBody=0;fillColor=none;collapsible=0;dropTarget=0;points=[[0,0.5],[1,0.5]];portConstraint=eastwest;top=0;left=0;right=0;bottom=0;fontSize=16;" parent="17bObgYSpj2WF66oxN5m-240" vertex="1">
          <mxGeometry y="180" width="510" height="30" as="geometry" />
        </mxCell>
        <mxCell id="17bObgYSpj2WF66oxN5m-270" value="" style="shape=partialRectangle;connectable=0;fillColor=none;top=0;left=0;bottom=0;right=0;editable=1;overflow=hidden;whiteSpace=wrap;html=1;fontSize=16;" parent="17bObgYSpj2WF66oxN5m-269" vertex="1">
          <mxGeometry width="90" height="30" as="geometry">
            <mxRectangle width="90" height="30" as="alternateBounds" />
          </mxGeometry>
        </mxCell>
        <mxCell id="17bObgYSpj2WF66oxN5m-271" value="status (Under review, rejected,&lt;span&gt;&lt;/span&gt; discrepancy)" style="shape=partialRectangle;connectable=0;fillColor=none;top=0;left=0;bottom=0;right=0;align=left;spacingLeft=6;overflow=hidden;whiteSpace=wrap;html=1;fontSize=16;" parent="17bObgYSpj2WF66oxN5m-269" vertex="1">
          <mxGeometry x="90" width="420" height="30" as="geometry">
            <mxRectangle width="420" height="30" as="alternateBounds" />
          </mxGeometry>
        </mxCell>
        <mxCell id="17bObgYSpj2WF66oxN5m-253" value="" style="shape=tableRow;horizontal=0;startSize=0;swimlaneHead=0;swimlaneBody=0;fillColor=none;collapsible=0;dropTarget=0;points=[[0,0.5],[1,0.5]];portConstraint=eastwest;top=0;left=0;right=0;bottom=0;fontSize=16;" parent="17bObgYSpj2WF66oxN5m-240" vertex="1">
          <mxGeometry y="210" width="510" height="30" as="geometry" />
        </mxCell>
        <mxCell id="17bObgYSpj2WF66oxN5m-254" value="FK 3" style="shape=partialRectangle;connectable=0;fillColor=none;top=0;left=0;bottom=0;right=0;editable=1;overflow=hidden;whiteSpace=wrap;html=1;fontSize=16;" parent="17bObgYSpj2WF66oxN5m-253" vertex="1">
          <mxGeometry width="90" height="30" as="geometry">
            <mxRectangle width="90" height="30" as="alternateBounds" />
          </mxGeometry>
        </mxCell>
        <mxCell id="17bObgYSpj2WF66oxN5m-255" value="public_key" style="shape=partialRectangle;connectable=0;fillColor=none;top=0;left=0;bottom=0;right=0;align=left;spacingLeft=6;overflow=hidden;whiteSpace=wrap;html=1;fontSize=16;" parent="17bObgYSpj2WF66oxN5m-253" vertex="1">
          <mxGeometry x="90" width="420" height="30" as="geometry">
            <mxRectangle width="420" height="30" as="alternateBounds" />
          </mxGeometry>
        </mxCell>
        <mxCell id="17bObgYSpj2WF66oxN5m-256" value="" style="shape=tableRow;horizontal=0;startSize=0;swimlaneHead=0;swimlaneBody=0;fillColor=none;collapsible=0;dropTarget=0;points=[[0,0.5],[1,0.5]];portConstraint=eastwest;top=0;left=0;right=0;bottom=0;fontSize=16;" parent="17bObgYSpj2WF66oxN5m-240" vertex="1">
          <mxGeometry y="240" width="510" height="30" as="geometry" />
        </mxCell>
        <mxCell id="17bObgYSpj2WF66oxN5m-257" value="FK 4" style="shape=partialRectangle;connectable=0;fillColor=none;top=0;left=0;bottom=0;right=0;editable=1;overflow=hidden;whiteSpace=wrap;html=1;fontSize=16;" parent="17bObgYSpj2WF66oxN5m-256" vertex="1">
          <mxGeometry width="90" height="30" as="geometry">
            <mxRectangle width="90" height="30" as="alternateBounds" />
          </mxGeometry>
        </mxCell>
        <mxCell id="17bObgYSpj2WF66oxN5m-258" value="basic_constraints_id" style="shape=partialRectangle;connectable=0;fillColor=none;top=0;left=0;bottom=0;right=0;align=left;spacingLeft=6;overflow=hidden;whiteSpace=wrap;html=1;fontSize=16;" parent="17bObgYSpj2WF66oxN5m-256" vertex="1">
          <mxGeometry x="90" width="420" height="30" as="geometry">
            <mxRectangle width="420" height="30" as="alternateBounds" />
          </mxGeometry>
        </mxCell>
        <mxCell id="17bObgYSpj2WF66oxN5m-259" value="" style="shape=tableRow;horizontal=0;startSize=0;swimlaneHead=0;swimlaneBody=0;fillColor=none;collapsible=0;dropTarget=0;points=[[0,0.5],[1,0.5]];portConstraint=eastwest;top=0;left=0;right=0;bottom=0;fontSize=16;" parent="17bObgYSpj2WF66oxN5m-240" vertex="1">
          <mxGeometry y="270" width="510" height="30" as="geometry" />
        </mxCell>
        <mxCell id="17bObgYSpj2WF66oxN5m-260" value="FK 5" style="shape=partialRectangle;connectable=0;fillColor=none;top=0;left=0;bottom=0;right=0;editable=1;overflow=hidden;whiteSpace=wrap;html=1;fontSize=16;" parent="17bObgYSpj2WF66oxN5m-259" vertex="1">
          <mxGeometry width="90" height="30" as="geometry">
            <mxRectangle width="90" height="30" as="alternateBounds" />
          </mxGeometry>
        </mxCell>
        <mxCell id="17bObgYSpj2WF66oxN5m-261" value="key_usage_id" style="shape=partialRectangle;connectable=0;fillColor=none;top=0;left=0;bottom=0;right=0;align=left;spacingLeft=6;overflow=hidden;whiteSpace=wrap;html=1;fontSize=16;" parent="17bObgYSpj2WF66oxN5m-259" vertex="1">
          <mxGeometry x="90" width="420" height="30" as="geometry">
            <mxRectangle width="420" height="30" as="alternateBounds" />
          </mxGeometry>
        </mxCell>
        <mxCell id="17bObgYSpj2WF66oxN5m-262" value="" style="shape=tableRow;horizontal=0;startSize=0;swimlaneHead=0;swimlaneBody=0;fillColor=none;collapsible=0;dropTarget=0;points=[[0,0.5],[1,0.5]];portConstraint=eastwest;top=0;left=0;right=0;bottom=0;fontSize=16;" parent="17bObgYSpj2WF66oxN5m-240" vertex="1">
          <mxGeometry y="300" width="510" height="30" as="geometry" />
        </mxCell>
        <mxCell id="17bObgYSpj2WF66oxN5m-263" value="FK 6" style="shape=partialRectangle;connectable=0;fillColor=none;top=0;left=0;bottom=0;right=0;editable=1;overflow=hidden;whiteSpace=wrap;html=1;fontSize=16;" parent="17bObgYSpj2WF66oxN5m-262" vertex="1">
          <mxGeometry width="90" height="30" as="geometry">
            <mxRectangle width="90" height="30" as="alternateBounds" />
          </mxGeometry>
        </mxCell>
        <mxCell id="17bObgYSpj2WF66oxN5m-264" value="signature_id" style="shape=partialRectangle;connectable=0;fillColor=none;top=0;left=0;bottom=0;right=0;align=left;spacingLeft=6;overflow=hidden;whiteSpace=wrap;html=1;fontSize=16;" parent="17bObgYSpj2WF66oxN5m-262" vertex="1">
          <mxGeometry x="90" width="420" height="30" as="geometry">
            <mxRectangle width="420" height="30" as="alternateBounds" />
          </mxGeometry>
        </mxCell>
        <mxCell id="BFu4falUhRQcTbq1laUE-7" value="" style="shape=tableRow;horizontal=0;startSize=0;swimlaneHead=0;swimlaneBody=0;fillColor=none;collapsible=0;dropTarget=0;points=[[0,0.5],[1,0.5]];portConstraint=eastwest;top=0;left=0;right=0;bottom=0;fontSize=16;" parent="17bObgYSpj2WF66oxN5m-240" vertex="1">
          <mxGeometry y="330" width="510" height="30" as="geometry" />
        </mxCell>
        <mxCell id="BFu4falUhRQcTbq1laUE-8" value="" style="shape=partialRectangle;connectable=0;fillColor=none;top=0;left=0;bottom=0;right=0;editable=1;overflow=hidden;whiteSpace=wrap;html=1;fontSize=16;" parent="BFu4falUhRQcTbq1laUE-7" vertex="1">
          <mxGeometry width="90" height="30" as="geometry">
            <mxRectangle width="90" height="30" as="alternateBounds" />
          </mxGeometry>
        </mxCell>
        <mxCell id="BFu4falUhRQcTbq1laUE-9" value="raw_csr TEXT NOT NULL" style="shape=partialRectangle;connectable=0;fillColor=none;top=0;left=0;bottom=0;right=0;align=left;spacingLeft=6;overflow=hidden;whiteSpace=wrap;html=1;fontSize=16;" parent="BFu4falUhRQcTbq1laUE-7" vertex="1">
          <mxGeometry x="90" width="420" height="30" as="geometry">
            <mxRectangle width="420" height="30" as="alternateBounds" />
          </mxGeometry>
        </mxCell>
        <mxCell id="17bObgYSpj2WF66oxN5m-272" value="Login" style="shape=table;startSize=30;container=1;collapsible=1;childLayout=tableLayout;fixedRows=1;rowLines=0;fontStyle=1;align=center;resizeLast=1;html=1;fontSize=16;" parent="1" vertex="1">
          <mxGeometry x="-2150" y="-2050" width="260" height="150" as="geometry" />
        </mxCell>
        <mxCell id="17bObgYSpj2WF66oxN5m-273" value="" style="shape=tableRow;horizontal=0;startSize=0;swimlaneHead=0;swimlaneBody=0;fillColor=none;collapsible=0;dropTarget=0;points=[[0,0.5],[1,0.5]];portConstraint=eastwest;top=0;left=0;right=0;bottom=1;fontSize=16;" parent="17bObgYSpj2WF66oxN5m-272" vertex="1">
          <mxGeometry y="30" width="260" height="30" as="geometry" />
        </mxCell>
        <mxCell id="17bObgYSpj2WF66oxN5m-274" value="PK" style="shape=partialRectangle;connectable=0;fillColor=none;top=0;left=0;bottom=0;right=0;fontStyle=1;overflow=hidden;whiteSpace=wrap;html=1;fontSize=16;" parent="17bObgYSpj2WF66oxN5m-273" vertex="1">
          <mxGeometry width="80" height="30" as="geometry">
            <mxRectangle width="80" height="30" as="alternateBounds" />
          </mxGeometry>
        </mxCell>
        <mxCell id="17bObgYSpj2WF66oxN5m-275" value="login_id" style="shape=partialRectangle;connectable=0;fillColor=none;top=0;left=0;bottom=0;right=0;align=left;spacingLeft=6;fontStyle=5;overflow=hidden;whiteSpace=wrap;html=1;fontSize=16;" parent="17bObgYSpj2WF66oxN5m-273" vertex="1">
          <mxGeometry x="80" width="180" height="30" as="geometry">
            <mxRectangle width="180" height="30" as="alternateBounds" />
          </mxGeometry>
        </mxCell>
        <mxCell id="17bObgYSpj2WF66oxN5m-276" value="" style="shape=tableRow;horizontal=0;startSize=0;swimlaneHead=0;swimlaneBody=0;fillColor=none;collapsible=0;dropTarget=0;points=[[0,0.5],[1,0.5]];portConstraint=eastwest;top=0;left=0;right=0;bottom=0;fontSize=16;" parent="17bObgYSpj2WF66oxN5m-272" vertex="1">
          <mxGeometry y="60" width="260" height="30" as="geometry" />
        </mxCell>
        <mxCell id="17bObgYSpj2WF66oxN5m-277" value="" style="shape=partialRectangle;connectable=0;fillColor=none;top=0;left=0;bottom=0;right=0;editable=1;overflow=hidden;whiteSpace=wrap;html=1;fontSize=16;" parent="17bObgYSpj2WF66oxN5m-276" vertex="1">
          <mxGeometry width="80" height="30" as="geometry">
            <mxRectangle width="80" height="30" as="alternateBounds" />
          </mxGeometry>
        </mxCell>
        <mxCell id="17bObgYSpj2WF66oxN5m-278" value="password" style="shape=partialRectangle;connectable=0;fillColor=none;top=0;left=0;bottom=0;right=0;align=left;spacingLeft=6;overflow=hidden;whiteSpace=wrap;html=1;fontSize=16;" parent="17bObgYSpj2WF66oxN5m-276" vertex="1">
          <mxGeometry x="80" width="180" height="30" as="geometry">
            <mxRectangle width="180" height="30" as="alternateBounds" />
          </mxGeometry>
        </mxCell>
        <mxCell id="17bObgYSpj2WF66oxN5m-279" value="" style="shape=tableRow;horizontal=0;startSize=0;swimlaneHead=0;swimlaneBody=0;fillColor=none;collapsible=0;dropTarget=0;points=[[0,0.5],[1,0.5]];portConstraint=eastwest;top=0;left=0;right=0;bottom=0;fontSize=16;" parent="17bObgYSpj2WF66oxN5m-272" vertex="1">
          <mxGeometry y="90" width="260" height="30" as="geometry" />
        </mxCell>
        <mxCell id="17bObgYSpj2WF66oxN5m-280" value="" style="shape=partialRectangle;connectable=0;fillColor=none;top=0;left=0;bottom=0;right=0;editable=1;overflow=hidden;whiteSpace=wrap;html=1;fontSize=16;" parent="17bObgYSpj2WF66oxN5m-279" vertex="1">
          <mxGeometry width="80" height="30" as="geometry">
            <mxRectangle width="80" height="30" as="alternateBounds" />
          </mxGeometry>
        </mxCell>
        <mxCell id="17bObgYSpj2WF66oxN5m-281" value="role" style="shape=partialRectangle;connectable=0;fillColor=none;top=0;left=0;bottom=0;right=0;align=left;spacingLeft=6;overflow=hidden;whiteSpace=wrap;html=1;fontSize=16;" parent="17bObgYSpj2WF66oxN5m-279" vertex="1">
          <mxGeometry x="80" width="180" height="30" as="geometry">
            <mxRectangle width="180" height="30" as="alternateBounds" />
          </mxGeometry>
        </mxCell>
        <mxCell id="17bObgYSpj2WF66oxN5m-282" value="" style="shape=tableRow;horizontal=0;startSize=0;swimlaneHead=0;swimlaneBody=0;fillColor=none;collapsible=0;dropTarget=0;points=[[0,0.5],[1,0.5]];portConstraint=eastwest;top=0;left=0;right=0;bottom=0;fontSize=16;" parent="17bObgYSpj2WF66oxN5m-272" vertex="1">
          <mxGeometry y="120" width="260" height="30" as="geometry" />
        </mxCell>
        <mxCell id="17bObgYSpj2WF66oxN5m-283" value="UNIQUE" style="shape=partialRectangle;connectable=0;fillColor=none;top=0;left=0;bottom=0;right=0;editable=1;overflow=hidden;whiteSpace=wrap;html=1;fontSize=16;" parent="17bObgYSpj2WF66oxN5m-282" vertex="1">
          <mxGeometry width="80" height="30" as="geometry">
            <mxRectangle width="80" height="30" as="alternateBounds" />
          </mxGeometry>
        </mxCell>
        <mxCell id="17bObgYSpj2WF66oxN5m-284" value="username" style="shape=partialRectangle;connectable=0;fillColor=none;top=0;left=0;bottom=0;right=0;align=left;spacingLeft=6;overflow=hidden;whiteSpace=wrap;html=1;fontSize=16;" parent="17bObgYSpj2WF66oxN5m-282" vertex="1">
          <mxGeometry x="80" width="180" height="30" as="geometry">
            <mxRectangle width="180" height="30" as="alternateBounds" />
          </mxGeometry>
        </mxCell>
        <mxCell id="17bObgYSpj2WF66oxN5m-285" value="Audit Trail" style="shape=table;startSize=30;container=1;collapsible=1;childLayout=tableLayout;fixedRows=1;rowLines=0;fontStyle=1;align=center;resizeLast=1;html=1;fontSize=16;" parent="1" vertex="1">
          <mxGeometry x="-2200" y="-2480" width="310" height="230" as="geometry" />
        </mxCell>
        <mxCell id="17bObgYSpj2WF66oxN5m-286" value="" style="shape=tableRow;horizontal=0;startSize=0;swimlaneHead=0;swimlaneBody=0;fillColor=none;collapsible=0;dropTarget=0;points=[[0,0.5],[1,0.5]];portConstraint=eastwest;top=0;left=0;right=0;bottom=1;fontSize=16;" parent="17bObgYSpj2WF66oxN5m-285" vertex="1">
          <mxGeometry y="30" width="310" height="30" as="geometry" />
        </mxCell>
        <mxCell id="17bObgYSpj2WF66oxN5m-287" value="PK" style="shape=partialRectangle;connectable=0;fillColor=none;top=0;left=0;bottom=0;right=0;fontStyle=1;overflow=hidden;whiteSpace=wrap;html=1;fontSize=16;" parent="17bObgYSpj2WF66oxN5m-286" vertex="1">
          <mxGeometry width="70" height="30" as="geometry">
            <mxRectangle width="70" height="30" as="alternateBounds" />
          </mxGeometry>
        </mxCell>
        <mxCell id="17bObgYSpj2WF66oxN5m-288" value="Audit_trail_id" style="shape=partialRectangle;connectable=0;fillColor=none;top=0;left=0;bottom=0;right=0;align=left;spacingLeft=6;fontStyle=5;overflow=hidden;whiteSpace=wrap;html=1;fontSize=16;" parent="17bObgYSpj2WF66oxN5m-286" vertex="1">
          <mxGeometry x="70" width="240" height="30" as="geometry">
            <mxRectangle width="240" height="30" as="alternateBounds" />
          </mxGeometry>
        </mxCell>
        <mxCell id="17bObgYSpj2WF66oxN5m-289" value="" style="shape=tableRow;horizontal=0;startSize=0;swimlaneHead=0;swimlaneBody=0;fillColor=none;collapsible=0;dropTarget=0;points=[[0,0.5],[1,0.5]];portConstraint=eastwest;top=0;left=0;right=0;bottom=0;fontSize=16;" parent="17bObgYSpj2WF66oxN5m-285" vertex="1">
          <mxGeometry y="60" width="310" height="30" as="geometry" />
        </mxCell>
        <mxCell id="17bObgYSpj2WF66oxN5m-290" value="FK" style="shape=partialRectangle;connectable=0;fillColor=none;top=0;left=0;bottom=0;right=0;editable=1;overflow=hidden;whiteSpace=wrap;html=1;fontSize=16;" parent="17bObgYSpj2WF66oxN5m-289" vertex="1">
          <mxGeometry width="70" height="30" as="geometry">
            <mxRectangle width="70" height="30" as="alternateBounds" />
          </mxGeometry>
        </mxCell>
        <mxCell id="17bObgYSpj2WF66oxN5m-291" value="login_id" style="shape=partialRectangle;connectable=0;fillColor=none;top=0;left=0;bottom=0;right=0;align=left;spacingLeft=6;overflow=hidden;whiteSpace=wrap;html=1;fontSize=16;" parent="17bObgYSpj2WF66oxN5m-289" vertex="1">
          <mxGeometry x="70" width="240" height="30" as="geometry">
            <mxRectangle width="240" height="30" as="alternateBounds" />
          </mxGeometry>
        </mxCell>
        <mxCell id="JsjeuOleq2LhqQmNNz2R-8" value="" style="shape=tableRow;horizontal=0;startSize=0;swimlaneHead=0;swimlaneBody=0;fillColor=none;collapsible=0;dropTarget=0;points=[[0,0.5],[1,0.5]];portConstraint=eastwest;top=0;left=0;right=0;bottom=0;fontSize=16;" parent="17bObgYSpj2WF66oxN5m-285" vertex="1">
          <mxGeometry y="90" width="310" height="30" as="geometry" />
        </mxCell>
        <mxCell id="JsjeuOleq2LhqQmNNz2R-9" value="FK" style="shape=partialRectangle;connectable=0;fillColor=none;top=0;left=0;bottom=0;right=0;editable=1;overflow=hidden;whiteSpace=wrap;html=1;fontSize=16;" parent="JsjeuOleq2LhqQmNNz2R-8" vertex="1">
          <mxGeometry width="70" height="30" as="geometry">
            <mxRectangle width="70" height="30" as="alternateBounds" />
          </mxGeometry>
        </mxCell>
        <mxCell id="JsjeuOleq2LhqQmNNz2R-10" value="username" style="shape=partialRectangle;connectable=0;fillColor=none;top=0;left=0;bottom=0;right=0;align=left;spacingLeft=6;overflow=hidden;whiteSpace=wrap;html=1;fontSize=16;" parent="JsjeuOleq2LhqQmNNz2R-8" vertex="1">
          <mxGeometry x="70" width="240" height="30" as="geometry">
            <mxRectangle width="240" height="30" as="alternateBounds" />
          </mxGeometry>
        </mxCell>
        <mxCell id="JsjeuOleq2LhqQmNNz2R-5" value="" style="shape=tableRow;horizontal=0;startSize=0;swimlaneHead=0;swimlaneBody=0;fillColor=none;collapsible=0;dropTarget=0;points=[[0,0.5],[1,0.5]];portConstraint=eastwest;top=0;left=0;right=0;bottom=0;fontSize=16;" parent="17bObgYSpj2WF66oxN5m-285" vertex="1">
          <mxGeometry y="120" width="310" height="20" as="geometry" />
        </mxCell>
        <mxCell id="JsjeuOleq2LhqQmNNz2R-6" value="FK" style="shape=partialRectangle;connectable=0;fillColor=none;top=0;left=0;bottom=0;right=0;editable=1;overflow=hidden;whiteSpace=wrap;html=1;fontSize=16;" parent="JsjeuOleq2LhqQmNNz2R-5" vertex="1">
          <mxGeometry width="70" height="20" as="geometry">
            <mxRectangle width="70" height="20" as="alternateBounds" />
          </mxGeometry>
        </mxCell>
        <mxCell id="JsjeuOleq2LhqQmNNz2R-7" value="role" style="shape=partialRectangle;connectable=0;fillColor=none;top=0;left=0;bottom=0;right=0;align=left;spacingLeft=6;overflow=hidden;whiteSpace=wrap;html=1;fontSize=16;" parent="JsjeuOleq2LhqQmNNz2R-5" vertex="1">
          <mxGeometry x="70" width="240" height="20" as="geometry">
            <mxRectangle width="240" height="20" as="alternateBounds" />
          </mxGeometry>
        </mxCell>
        <mxCell id="17bObgYSpj2WF66oxN5m-292" value="" style="shape=tableRow;horizontal=0;startSize=0;swimlaneHead=0;swimlaneBody=0;fillColor=none;collapsible=0;dropTarget=0;points=[[0,0.5],[1,0.5]];portConstraint=eastwest;top=0;left=0;right=0;bottom=0;fontSize=16;" parent="17bObgYSpj2WF66oxN5m-285" vertex="1">
          <mxGeometry y="140" width="310" height="30" as="geometry" />
        </mxCell>
        <mxCell id="17bObgYSpj2WF66oxN5m-293" value="" style="shape=partialRectangle;connectable=0;fillColor=none;top=0;left=0;bottom=0;right=0;editable=1;overflow=hidden;whiteSpace=wrap;html=1;fontSize=16;" parent="17bObgYSpj2WF66oxN5m-292" vertex="1">
          <mxGeometry width="70" height="30" as="geometry">
            <mxRectangle width="70" height="30" as="alternateBounds" />
          </mxGeometry>
        </mxCell>
        <mxCell id="17bObgYSpj2WF66oxN5m-294" value="action_type(what he has done)" style="shape=partialRectangle;connectable=0;fillColor=none;top=0;left=0;bottom=0;right=0;align=left;spacingLeft=6;overflow=hidden;whiteSpace=wrap;html=1;fontSize=16;" parent="17bObgYSpj2WF66oxN5m-292" vertex="1">
          <mxGeometry x="70" width="240" height="30" as="geometry">
            <mxRectangle width="240" height="30" as="alternateBounds" />
          </mxGeometry>
        </mxCell>
        <mxCell id="17bObgYSpj2WF66oxN5m-295" value="" style="shape=tableRow;horizontal=0;startSize=0;swimlaneHead=0;swimlaneBody=0;fillColor=none;collapsible=0;dropTarget=0;points=[[0,0.5],[1,0.5]];portConstraint=eastwest;top=0;left=0;right=0;bottom=0;fontSize=16;" parent="17bObgYSpj2WF66oxN5m-285" vertex="1">
          <mxGeometry y="170" width="310" height="30" as="geometry" />
        </mxCell>
        <mxCell id="17bObgYSpj2WF66oxN5m-296" value="" style="shape=partialRectangle;connectable=0;fillColor=none;top=0;left=0;bottom=0;right=0;editable=1;overflow=hidden;whiteSpace=wrap;html=1;fontSize=16;" parent="17bObgYSpj2WF66oxN5m-295" vertex="1">
          <mxGeometry width="70" height="30" as="geometry">
            <mxRectangle width="70" height="30" as="alternateBounds" />
          </mxGeometry>
        </mxCell>
        <mxCell id="17bObgYSpj2WF66oxN5m-297" value="table_name" style="shape=partialRectangle;connectable=0;fillColor=none;top=0;left=0;bottom=0;right=0;align=left;spacingLeft=6;overflow=hidden;whiteSpace=wrap;html=1;fontSize=16;" parent="17bObgYSpj2WF66oxN5m-295" vertex="1">
          <mxGeometry x="70" width="240" height="30" as="geometry">
            <mxRectangle width="240" height="30" as="alternateBounds" />
          </mxGeometry>
        </mxCell>
        <mxCell id="17bObgYSpj2WF66oxN5m-311" value="" style="shape=tableRow;horizontal=0;startSize=0;swimlaneHead=0;swimlaneBody=0;fillColor=none;collapsible=0;dropTarget=0;points=[[0,0.5],[1,0.5]];portConstraint=eastwest;top=0;left=0;right=0;bottom=0;fontSize=16;" parent="17bObgYSpj2WF66oxN5m-285" vertex="1">
          <mxGeometry y="200" width="310" height="30" as="geometry" />
        </mxCell>
        <mxCell id="17bObgYSpj2WF66oxN5m-312" value="" style="shape=partialRectangle;connectable=0;fillColor=none;top=0;left=0;bottom=0;right=0;editable=1;overflow=hidden;whiteSpace=wrap;html=1;fontSize=16;" parent="17bObgYSpj2WF66oxN5m-311" vertex="1">
          <mxGeometry width="70" height="30" as="geometry">
            <mxRectangle width="70" height="30" as="alternateBounds" />
          </mxGeometry>
        </mxCell>
        <mxCell id="17bObgYSpj2WF66oxN5m-313" value="time_stamp" style="shape=partialRectangle;connectable=0;fillColor=none;top=0;left=0;bottom=0;right=0;align=left;spacingLeft=6;overflow=hidden;whiteSpace=wrap;html=1;fontSize=16;" parent="17bObgYSpj2WF66oxN5m-311" vertex="1">
          <mxGeometry x="70" width="240" height="30" as="geometry">
            <mxRectangle width="240" height="30" as="alternateBounds" />
          </mxGeometry>
        </mxCell>
        <mxCell id="17bObgYSpj2WF66oxN5m-314" value="Certificate usage" style="shape=table;startSize=30;container=1;collapsible=1;childLayout=tableLayout;fixedRows=1;rowLines=0;fontStyle=1;align=center;resizeLast=1;html=1;fontSize=16;" parent="1" vertex="1">
          <mxGeometry x="-330" y="-1470" width="270" height="150" as="geometry" />
        </mxCell>
        <mxCell id="17bObgYSpj2WF66oxN5m-315" value="" style="shape=tableRow;horizontal=0;startSize=0;swimlaneHead=0;swimlaneBody=0;fillColor=none;collapsible=0;dropTarget=0;points=[[0,0.5],[1,0.5]];portConstraint=eastwest;top=0;left=0;right=0;bottom=1;fontSize=16;" parent="17bObgYSpj2WF66oxN5m-314" vertex="1">
          <mxGeometry y="30" width="270" height="30" as="geometry" />
        </mxCell>
        <mxCell id="17bObgYSpj2WF66oxN5m-316" value="PK" style="shape=partialRectangle;connectable=0;fillColor=none;top=0;left=0;bottom=0;right=0;fontStyle=1;overflow=hidden;whiteSpace=wrap;html=1;fontSize=16;" parent="17bObgYSpj2WF66oxN5m-315" vertex="1">
          <mxGeometry width="50" height="30" as="geometry">
            <mxRectangle width="50" height="30" as="alternateBounds" />
          </mxGeometry>
        </mxCell>
        <mxCell id="17bObgYSpj2WF66oxN5m-317" value="usage_id" style="shape=partialRectangle;connectable=0;fillColor=none;top=0;left=0;bottom=0;right=0;align=left;spacingLeft=6;fontStyle=5;overflow=hidden;whiteSpace=wrap;html=1;fontSize=16;" parent="17bObgYSpj2WF66oxN5m-315" vertex="1">
          <mxGeometry x="50" width="220" height="30" as="geometry">
            <mxRectangle width="220" height="30" as="alternateBounds" />
          </mxGeometry>
        </mxCell>
        <mxCell id="17bObgYSpj2WF66oxN5m-318" value="" style="shape=tableRow;horizontal=0;startSize=0;swimlaneHead=0;swimlaneBody=0;fillColor=none;collapsible=0;dropTarget=0;points=[[0,0.5],[1,0.5]];portConstraint=eastwest;top=0;left=0;right=0;bottom=0;fontSize=16;" parent="17bObgYSpj2WF66oxN5m-314" vertex="1">
          <mxGeometry y="60" width="270" height="30" as="geometry" />
        </mxCell>
        <mxCell id="17bObgYSpj2WF66oxN5m-319" value="FK" style="shape=partialRectangle;connectable=0;fillColor=none;top=0;left=0;bottom=0;right=0;editable=1;overflow=hidden;whiteSpace=wrap;html=1;fontSize=16;" parent="17bObgYSpj2WF66oxN5m-318" vertex="1">
          <mxGeometry width="50" height="30" as="geometry">
            <mxRectangle width="50" height="30" as="alternateBounds" />
          </mxGeometry>
        </mxCell>
        <mxCell id="17bObgYSpj2WF66oxN5m-320" value="serial_number" style="shape=partialRectangle;connectable=0;fillColor=none;top=0;left=0;bottom=0;right=0;align=left;spacingLeft=6;overflow=hidden;whiteSpace=wrap;html=1;fontSize=16;" parent="17bObgYSpj2WF66oxN5m-318" vertex="1">
          <mxGeometry x="50" width="220" height="30" as="geometry">
            <mxRectangle width="220" height="30" as="alternateBounds" />
          </mxGeometry>
        </mxCell>
        <mxCell id="17bObgYSpj2WF66oxN5m-321" value="" style="shape=tableRow;horizontal=0;startSize=0;swimlaneHead=0;swimlaneBody=0;fillColor=none;collapsible=0;dropTarget=0;points=[[0,0.5],[1,0.5]];portConstraint=eastwest;top=0;left=0;right=0;bottom=0;fontSize=16;" parent="17bObgYSpj2WF66oxN5m-314" vertex="1">
          <mxGeometry y="90" width="270" height="30" as="geometry" />
        </mxCell>
        <mxCell id="17bObgYSpj2WF66oxN5m-322" value="" style="shape=partialRectangle;connectable=0;fillColor=none;top=0;left=0;bottom=0;right=0;editable=1;overflow=hidden;whiteSpace=wrap;html=1;fontSize=16;" parent="17bObgYSpj2WF66oxN5m-321" vertex="1">
          <mxGeometry width="50" height="30" as="geometry">
            <mxRectangle width="50" height="30" as="alternateBounds" />
          </mxGeometry>
        </mxCell>
        <mxCell id="17bObgYSpj2WF66oxN5m-323" value="subj_serial_number" style="shape=partialRectangle;connectable=0;fillColor=none;top=0;left=0;bottom=0;right=0;align=left;spacingLeft=6;overflow=hidden;whiteSpace=wrap;html=1;fontSize=16;" parent="17bObgYSpj2WF66oxN5m-321" vertex="1">
          <mxGeometry x="50" width="220" height="30" as="geometry">
            <mxRectangle width="220" height="30" as="alternateBounds" />
          </mxGeometry>
        </mxCell>
        <mxCell id="17bObgYSpj2WF66oxN5m-324" value="" style="shape=tableRow;horizontal=0;startSize=0;swimlaneHead=0;swimlaneBody=0;fillColor=none;collapsible=0;dropTarget=0;points=[[0,0.5],[1,0.5]];portConstraint=eastwest;top=0;left=0;right=0;bottom=0;fontSize=16;" parent="17bObgYSpj2WF66oxN5m-314" vertex="1">
          <mxGeometry y="120" width="270" height="30" as="geometry" />
        </mxCell>
        <mxCell id="17bObgYSpj2WF66oxN5m-325" value="" style="shape=partialRectangle;connectable=0;fillColor=none;top=0;left=0;bottom=0;right=0;editable=1;overflow=hidden;whiteSpace=wrap;html=1;fontSize=16;" parent="17bObgYSpj2WF66oxN5m-324" vertex="1">
          <mxGeometry width="50" height="30" as="geometry">
            <mxRectangle width="50" height="30" as="alternateBounds" />
          </mxGeometry>
        </mxCell>
        <mxCell id="17bObgYSpj2WF66oxN5m-326" value="time_stamp" style="shape=partialRectangle;connectable=0;fillColor=none;top=0;left=0;bottom=0;right=0;align=left;spacingLeft=6;overflow=hidden;whiteSpace=wrap;html=1;fontSize=16;" parent="17bObgYSpj2WF66oxN5m-324" vertex="1">
          <mxGeometry x="50" width="220" height="30" as="geometry">
            <mxRectangle width="220" height="30" as="alternateBounds" />
          </mxGeometry>
        </mxCell>
        <mxCell id="17bObgYSpj2WF66oxN5m-327" value="Revocation Data" style="shape=table;startSize=30;container=1;collapsible=1;childLayout=tableLayout;fixedRows=1;rowLines=0;fontStyle=1;align=center;resizeLast=1;html=1;fontSize=16;" parent="1" vertex="1">
          <mxGeometry x="-340" y="-1060" width="270" height="150" as="geometry" />
        </mxCell>
        <mxCell id="17bObgYSpj2WF66oxN5m-328" value="" style="shape=tableRow;horizontal=0;startSize=0;swimlaneHead=0;swimlaneBody=0;fillColor=none;collapsible=0;dropTarget=0;points=[[0,0.5],[1,0.5]];portConstraint=eastwest;top=0;left=0;right=0;bottom=1;fontSize=16;" parent="17bObgYSpj2WF66oxN5m-327" vertex="1">
          <mxGeometry y="30" width="270" height="30" as="geometry" />
        </mxCell>
        <mxCell id="17bObgYSpj2WF66oxN5m-329" value="PK" style="shape=partialRectangle;connectable=0;fillColor=none;top=0;left=0;bottom=0;right=0;fontStyle=1;overflow=hidden;whiteSpace=wrap;html=1;fontSize=16;" parent="17bObgYSpj2WF66oxN5m-328" vertex="1">
          <mxGeometry width="70" height="30" as="geometry">
            <mxRectangle width="70" height="30" as="alternateBounds" />
          </mxGeometry>
        </mxCell>
        <mxCell id="17bObgYSpj2WF66oxN5m-330" value="revoke_id" style="shape=partialRectangle;connectable=0;fillColor=none;top=0;left=0;bottom=0;right=0;align=left;spacingLeft=6;fontStyle=5;overflow=hidden;whiteSpace=wrap;html=1;fontSize=16;" parent="17bObgYSpj2WF66oxN5m-328" vertex="1">
          <mxGeometry x="70" width="200" height="30" as="geometry">
            <mxRectangle width="200" height="30" as="alternateBounds" />
          </mxGeometry>
        </mxCell>
        <mxCell id="17bObgYSpj2WF66oxN5m-331" value="" style="shape=tableRow;horizontal=0;startSize=0;swimlaneHead=0;swimlaneBody=0;fillColor=none;collapsible=0;dropTarget=0;points=[[0,0.5],[1,0.5]];portConstraint=eastwest;top=0;left=0;right=0;bottom=0;fontSize=16;" parent="17bObgYSpj2WF66oxN5m-327" vertex="1">
          <mxGeometry y="60" width="270" height="30" as="geometry" />
        </mxCell>
        <mxCell id="17bObgYSpj2WF66oxN5m-332" value="FK" style="shape=partialRectangle;connectable=0;fillColor=none;top=0;left=0;bottom=0;right=0;editable=1;overflow=hidden;whiteSpace=wrap;html=1;fontSize=16;" parent="17bObgYSpj2WF66oxN5m-331" vertex="1">
          <mxGeometry width="70" height="30" as="geometry">
            <mxRectangle width="70" height="30" as="alternateBounds" />
          </mxGeometry>
        </mxCell>
        <mxCell id="17bObgYSpj2WF66oxN5m-333" value="serial_number" style="shape=partialRectangle;connectable=0;fillColor=none;top=0;left=0;bottom=0;right=0;align=left;spacingLeft=6;overflow=hidden;whiteSpace=wrap;html=1;fontSize=16;" parent="17bObgYSpj2WF66oxN5m-331" vertex="1">
          <mxGeometry x="70" width="200" height="30" as="geometry">
            <mxRectangle width="200" height="30" as="alternateBounds" />
          </mxGeometry>
        </mxCell>
        <mxCell id="17bObgYSpj2WF66oxN5m-334" value="" style="shape=tableRow;horizontal=0;startSize=0;swimlaneHead=0;swimlaneBody=0;fillColor=none;collapsible=0;dropTarget=0;points=[[0,0.5],[1,0.5]];portConstraint=eastwest;top=0;left=0;right=0;bottom=0;fontSize=16;" parent="17bObgYSpj2WF66oxN5m-327" vertex="1">
          <mxGeometry y="90" width="270" height="30" as="geometry" />
        </mxCell>
        <mxCell id="17bObgYSpj2WF66oxN5m-335" value="" style="shape=partialRectangle;connectable=0;fillColor=none;top=0;left=0;bottom=0;right=0;editable=1;overflow=hidden;whiteSpace=wrap;html=1;fontSize=16;" parent="17bObgYSpj2WF66oxN5m-334" vertex="1">
          <mxGeometry width="70" height="30" as="geometry">
            <mxRectangle width="70" height="30" as="alternateBounds" />
          </mxGeometry>
        </mxCell>
        <mxCell id="17bObgYSpj2WF66oxN5m-336" value="reason" style="shape=partialRectangle;connectable=0;fillColor=none;top=0;left=0;bottom=0;right=0;align=left;spacingLeft=6;overflow=hidden;whiteSpace=wrap;html=1;fontSize=16;" parent="17bObgYSpj2WF66oxN5m-334" vertex="1">
          <mxGeometry x="70" width="200" height="30" as="geometry">
            <mxRectangle width="200" height="30" as="alternateBounds" />
          </mxGeometry>
        </mxCell>
        <mxCell id="17bObgYSpj2WF66oxN5m-337" value="" style="shape=tableRow;horizontal=0;startSize=0;swimlaneHead=0;swimlaneBody=0;fillColor=none;collapsible=0;dropTarget=0;points=[[0,0.5],[1,0.5]];portConstraint=eastwest;top=0;left=0;right=0;bottom=0;fontSize=16;" parent="17bObgYSpj2WF66oxN5m-327" vertex="1">
          <mxGeometry y="120" width="270" height="30" as="geometry" />
        </mxCell>
        <mxCell id="17bObgYSpj2WF66oxN5m-338" value="" style="shape=partialRectangle;connectable=0;fillColor=none;top=0;left=0;bottom=0;right=0;editable=1;overflow=hidden;whiteSpace=wrap;html=1;fontSize=16;" parent="17bObgYSpj2WF66oxN5m-337" vertex="1">
          <mxGeometry width="70" height="30" as="geometry">
            <mxRectangle width="70" height="30" as="alternateBounds" />
          </mxGeometry>
        </mxCell>
        <mxCell id="17bObgYSpj2WF66oxN5m-339" value="revoke_date_time" style="shape=partialRectangle;connectable=0;fillColor=none;top=0;left=0;bottom=0;right=0;align=left;spacingLeft=6;overflow=hidden;whiteSpace=wrap;html=1;fontSize=16;" parent="17bObgYSpj2WF66oxN5m-337" vertex="1">
          <mxGeometry x="70" width="200" height="30" as="geometry">
            <mxRectangle width="200" height="30" as="alternateBounds" />
          </mxGeometry>
        </mxCell>
        <mxCell id="JsjeuOleq2LhqQmNNz2R-11" value="" style="edgeStyle=entityRelationEdgeStyle;fontSize=12;html=1;endArrow=ERoneToMany;rounded=0;exitX=1;exitY=0.5;exitDx=0;exitDy=0;entryX=0;entryY=0.5;entryDx=0;entryDy=0;" parent="1" source="jJHuSSU_93GH472XAZiS-8" target="17bObgYSpj2WF66oxN5m-318" edge="1">
          <mxGeometry width="100" height="100" relative="1" as="geometry">
            <mxPoint x="-680" y="-1430" as="sourcePoint" />
            <mxPoint x="-580" y="-1530" as="targetPoint" />
          </mxGeometry>
        </mxCell>
        <mxCell id="JsjeuOleq2LhqQmNNz2R-13" value="" style="edgeStyle=entityRelationEdgeStyle;fontSize=12;html=1;endArrow=ERoneToMany;rounded=0;exitX=1;exitY=0.5;exitDx=0;exitDy=0;" parent="1" source="jJHuSSU_93GH472XAZiS-12" target="JsjeuOleq2LhqQmNNz2R-30" edge="1">
          <mxGeometry width="100" height="100" relative="1" as="geometry">
            <mxPoint x="-1280" y="-1310" as="sourcePoint" />
            <mxPoint x="-1180" y="-1410" as="targetPoint" />
            <Array as="points" />
          </mxGeometry>
        </mxCell>
        <mxCell id="JsjeuOleq2LhqQmNNz2R-15" value="" style="edgeStyle=entityRelationEdgeStyle;fontSize=12;html=1;endArrow=ERmandOne;startArrow=ERmandOne;rounded=0;entryX=0;entryY=0.5;entryDx=0;entryDy=0;" parent="1" source="jJHuSSU_93GH472XAZiS-51" target="17bObgYSpj2WF66oxN5m-67" edge="1">
          <mxGeometry width="100" height="100" relative="1" as="geometry">
            <mxPoint x="-1280" y="-980" as="sourcePoint" />
            <mxPoint x="-1180" y="-1080" as="targetPoint" />
          </mxGeometry>
        </mxCell>
        <mxCell id="JsjeuOleq2LhqQmNNz2R-16" value="" style="edgeStyle=entityRelationEdgeStyle;fontSize=12;html=1;endArrow=ERmandOne;startArrow=ERmandOne;rounded=0;exitX=1;exitY=0.5;exitDx=0;exitDy=0;entryX=0;entryY=0.5;entryDx=0;entryDy=0;" parent="1" source="jJHuSSU_93GH472XAZiS-53" target="17bObgYSpj2WF66oxN5m-70" edge="1">
          <mxGeometry width="100" height="100" relative="1" as="geometry">
            <mxPoint x="-1280" y="-590" as="sourcePoint" />
            <mxPoint x="-1180" y="-690" as="targetPoint" />
          </mxGeometry>
        </mxCell>
        <mxCell id="JsjeuOleq2LhqQmNNz2R-21" value="" style="edgeStyle=entityRelationEdgeStyle;fontSize=12;html=1;endArrow=ERmandOne;startArrow=ERmandOne;rounded=0;exitX=1;exitY=0.5;exitDx=0;exitDy=0;entryX=0;entryY=0.5;entryDx=0;entryDy=0;" parent="1" source="jJHuSSU_93GH472XAZiS-60" target="17bObgYSpj2WF66oxN5m-73" edge="1">
          <mxGeometry width="100" height="100" relative="1" as="geometry">
            <mxPoint x="-1280" y="-360" as="sourcePoint" />
            <mxPoint x="-1180" y="-460" as="targetPoint" />
          </mxGeometry>
        </mxCell>
        <mxCell id="JsjeuOleq2LhqQmNNz2R-23" value="" style="edgeStyle=entityRelationEdgeStyle;fontSize=12;html=1;endArrow=ERmandOne;startArrow=ERmandOne;rounded=0;entryX=0;entryY=0.5;entryDx=0;entryDy=0;" parent="1" source="jJHuSSU_93GH472XAZiS-59" target="17bObgYSpj2WF66oxN5m-76" edge="1">
          <mxGeometry width="100" height="100" relative="1" as="geometry">
            <mxPoint x="-1280" y="-590" as="sourcePoint" />
            <mxPoint x="-1180" y="-690" as="targetPoint" />
          </mxGeometry>
        </mxCell>
        <mxCell id="JsjeuOleq2LhqQmNNz2R-24" value="" style="edgeStyle=entityRelationEdgeStyle;fontSize=12;html=1;endArrow=ERmandOne;startArrow=ERmandOne;rounded=0;exitX=1;exitY=0.5;exitDx=0;exitDy=0;" parent="1" source="jJHuSSU_93GH472XAZiS-57" target="17bObgYSpj2WF66oxN5m-79" edge="1">
          <mxGeometry width="100" height="100" relative="1" as="geometry">
            <mxPoint x="-1370" y="-195" as="sourcePoint" />
            <mxPoint x="-1160" y="-710" as="targetPoint" />
          </mxGeometry>
        </mxCell>
        <mxCell id="JsjeuOleq2LhqQmNNz2R-26" value="" style="edgeStyle=entityRelationEdgeStyle;fontSize=16;html=1;endArrow=ERoneToMany;startArrow=ERoneToMany;rounded=0;exitX=0;exitY=0.5;exitDx=0;exitDy=0;" parent="1" source="jJHuSSU_93GH472XAZiS-4" target="17bObgYSpj2WF66oxN5m-289" edge="1">
          <mxGeometry width="100" height="100" relative="1" as="geometry">
            <mxPoint x="-1610" y="-2130" as="sourcePoint" />
            <mxPoint x="-230" y="-1650" as="targetPoint" />
            <Array as="points">
              <mxPoint x="-1590" y="-2300" />
              <mxPoint x="-1630" y="-2300" />
            </Array>
          </mxGeometry>
        </mxCell>
        <mxCell id="jJHuSSU_93GH472XAZiS-99" value="&lt;div&gt;many mandatory&lt;/div&gt;&lt;div&gt;to many mandatory&lt;br&gt;&lt;/div&gt;" style="edgeLabel;html=1;align=center;verticalAlign=middle;resizable=0;points=[];" parent="JsjeuOleq2LhqQmNNz2R-26" vertex="1" connectable="0">
          <mxGeometry x="0.0818" y="-4" relative="1" as="geometry">
            <mxPoint y="1" as="offset" />
          </mxGeometry>
        </mxCell>
        <mxCell id="JsjeuOleq2LhqQmNNz2R-29" value="" style="edgeStyle=entityRelationEdgeStyle;fontSize=12;html=1;endArrow=ERoneToMany;rounded=0;exitX=1;exitY=0.5;exitDx=0;exitDy=0;entryX=0;entryY=0.5;entryDx=0;entryDy=0;" parent="1" source="jJHuSSU_93GH472XAZiS-22" target="17bObgYSpj2WF66oxN5m-54" edge="1">
          <mxGeometry width="100" height="100" relative="1" as="geometry">
            <mxPoint x="-1320" y="-1150" as="sourcePoint" />
            <mxPoint x="-1220" y="-1250" as="targetPoint" />
          </mxGeometry>
        </mxCell>
        <mxCell id="JsjeuOleq2LhqQmNNz2R-33" value="" style="edgeStyle=entityRelationEdgeStyle;fontSize=12;html=1;endArrow=ERmandOne;startArrow=ERmandOne;rounded=0;exitX=1;exitY=0.5;exitDx=0;exitDy=0;entryX=0;entryY=0.5;entryDx=0;entryDy=0;" parent="1" source="jJHuSSU_93GH472XAZiS-55" target="17bObgYSpj2WF66oxN5m-82" edge="1">
          <mxGeometry width="100" height="100" relative="1" as="geometry">
            <mxPoint x="-1320" y="-540" as="sourcePoint" />
            <mxPoint x="-1220" y="-640" as="targetPoint" />
          </mxGeometry>
        </mxCell>
        <mxCell id="JsjeuOleq2LhqQmNNz2R-36" value="" style="edgeStyle=entityRelationEdgeStyle;fontSize=12;html=1;endArrow=ERzeroToOne;endFill=1;rounded=0;" parent="1" source="jJHuSSU_93GH472XAZiS-10" target="17bObgYSpj2WF66oxN5m-331" edge="1">
          <mxGeometry width="100" height="100" relative="1" as="geometry">
            <mxPoint x="-1050" y="-1390" as="sourcePoint" />
            <mxPoint x="-950" y="-1490" as="targetPoint" />
          </mxGeometry>
        </mxCell>
        <mxCell id="JsjeuOleq2LhqQmNNz2R-39" value="" style="edgeStyle=entityRelationEdgeStyle;fontSize=12;html=1;endArrow=ERmandOne;startArrow=ERmandOne;rounded=0;entryX=0;entryY=0.5;entryDx=0;entryDy=0;" parent="1" source="jJHuSSU_93GH472XAZiS-38" target="17bObgYSpj2WF66oxN5m-143" edge="1">
          <mxGeometry width="100" height="100" relative="1" as="geometry">
            <mxPoint x="-2250" y="-1030" as="sourcePoint" />
            <mxPoint x="-2150" y="-1130" as="targetPoint" />
          </mxGeometry>
        </mxCell>
        <mxCell id="jJHuSSU_93GH472XAZiS-90" value="1 to 1" style="edgeLabel;html=1;align=center;verticalAlign=middle;resizable=0;points=[];" parent="JsjeuOleq2LhqQmNNz2R-39" vertex="1" connectable="0">
          <mxGeometry x="-0.0711" y="-1" relative="1" as="geometry">
            <mxPoint as="offset" />
          </mxGeometry>
        </mxCell>
        <mxCell id="JsjeuOleq2LhqQmNNz2R-40" value="" style="edgeStyle=entityRelationEdgeStyle;fontSize=12;html=1;endArrow=ERmandOne;startArrow=ERmandOne;rounded=0;" parent="1" source="jJHuSSU_93GH472XAZiS-40" target="17bObgYSpj2WF66oxN5m-175" edge="1">
          <mxGeometry width="100" height="100" relative="1" as="geometry">
            <mxPoint x="-2250" y="-760" as="sourcePoint" />
            <mxPoint x="-2150" y="-860" as="targetPoint" />
          </mxGeometry>
        </mxCell>
        <mxCell id="jJHuSSU_93GH472XAZiS-89" value="1 to 1" style="edgeLabel;html=1;align=center;verticalAlign=middle;resizable=0;points=[];" parent="JsjeuOleq2LhqQmNNz2R-40" vertex="1" connectable="0">
          <mxGeometry x="-0.111" y="2" relative="1" as="geometry">
            <mxPoint as="offset" />
          </mxGeometry>
        </mxCell>
        <mxCell id="JsjeuOleq2LhqQmNNz2R-41" value="" style="edgeStyle=entityRelationEdgeStyle;fontSize=12;html=1;endArrow=ERmandOne;startArrow=ERmandOne;rounded=0;exitX=1;exitY=0.5;exitDx=0;exitDy=0;" parent="1" source="jJHuSSU_93GH472XAZiS-42" target="17bObgYSpj2WF66oxN5m-201" edge="1">
          <mxGeometry width="100" height="100" relative="1" as="geometry">
            <mxPoint x="-2310" y="-890" as="sourcePoint" />
            <mxPoint x="-2240" y="-760" as="targetPoint" />
          </mxGeometry>
        </mxCell>
        <mxCell id="jJHuSSU_93GH472XAZiS-88" value="1 to 1" style="edgeLabel;html=1;align=center;verticalAlign=middle;resizable=0;points=[];" parent="JsjeuOleq2LhqQmNNz2R-41" vertex="1" connectable="0">
          <mxGeometry x="0.0197" y="-1" relative="1" as="geometry">
            <mxPoint as="offset" />
          </mxGeometry>
        </mxCell>
        <mxCell id="JsjeuOleq2LhqQmNNz2R-42" value="" style="edgeStyle=entityRelationEdgeStyle;fontSize=12;html=1;endArrow=ERmandOne;startArrow=ERmandOne;rounded=0;" parent="1" source="jJHuSSU_93GH472XAZiS-44" target="17bObgYSpj2WF66oxN5m-227" edge="1">
          <mxGeometry width="100" height="100" relative="1" as="geometry">
            <mxPoint x="-2310" y="-890" as="sourcePoint" />
            <mxPoint x="-1990" y="-210" as="targetPoint" />
          </mxGeometry>
        </mxCell>
        <mxCell id="jJHuSSU_93GH472XAZiS-87" value="1 to 1" style="edgeLabel;html=1;align=center;verticalAlign=middle;resizable=0;points=[];" parent="JsjeuOleq2LhqQmNNz2R-42" vertex="1" connectable="0">
          <mxGeometry x="0.0064" y="-2" relative="1" as="geometry">
            <mxPoint as="offset" />
          </mxGeometry>
        </mxCell>
        <object label="" id="IknBSY2QsHU1voEU84ze-5">
          <mxCell style="edgeStyle=entityRelationEdgeStyle;fontSize=12;html=1;endArrow=ERzeroToMany;startArrow=ERmandOne;rounded=0;entryX=0;entryY=0.5;entryDx=0;entryDy=0;" parent="1" source="jJHuSSU_93GH472XAZiS-6" target="C-vyLk0tnHw3VtMMgP7b-24" edge="1">
            <mxGeometry width="100" height="100" relative="1" as="geometry">
              <mxPoint x="-1580" y="-1680" as="sourcePoint" />
              <mxPoint x="-1050" y="-1570" as="targetPoint" />
            </mxGeometry>
          </mxCell>
        </object>
        <mxCell id="IknBSY2QsHU1voEU84ze-6" value="" style="edgeStyle=entityRelationEdgeStyle;fontSize=12;html=1;endArrow=ERzeroToMany;startArrow=ERmandOne;rounded=0;exitX=0;exitY=0.5;exitDx=0;exitDy=0;entryX=1;entryY=0.5;entryDx=0;entryDy=0;" parent="1" source="jJHuSSU_93GH472XAZiS-2" target="17bObgYSpj2WF66oxN5m-241" edge="1">
          <mxGeometry width="100" height="100" relative="1" as="geometry">
            <mxPoint x="-2190" y="-1690" as="sourcePoint" />
            <mxPoint x="-2090" y="-1790" as="targetPoint" />
          </mxGeometry>
        </mxCell>
        <mxCell id="jJHuSSU_93GH472XAZiS-1" value="" style="edgeStyle=entityRelationEdgeStyle;fontSize=12;html=1;endArrow=ERzeroToMany;startArrow=ERmandOne;rounded=0;exitX=-0.015;exitY=0.067;exitDx=0;exitDy=0;exitPerimeter=0;entryX=1;entryY=0.5;entryDx=0;entryDy=0;" parent="1" source="17bObgYSpj2WF66oxN5m-279" target="jJHuSSU_93GH472XAZiS-2" edge="1">
          <mxGeometry width="100" height="100" relative="1" as="geometry">
            <mxPoint x="-1774" y="-1898" as="sourcePoint" />
            <mxPoint x="-2320" y="-1295" as="targetPoint" />
          </mxGeometry>
        </mxCell>
        <mxCell id="jJHuSSU_93GH472XAZiS-93" value="&lt;div&gt;1 mandatory&lt;/div&gt;&lt;div&gt;to&lt;/div&gt;many optional" style="edgeLabel;html=1;align=center;verticalAlign=middle;resizable=0;points=[];" parent="jJHuSSU_93GH472XAZiS-1" vertex="1" connectable="0">
          <mxGeometry x="-0.0814" y="3" relative="1" as="geometry">
            <mxPoint x="1" as="offset" />
          </mxGeometry>
        </mxCell>
        <mxCell id="jJHuSSU_93GH472XAZiS-2" value="if login successful:&lt;br&gt;&lt;div&gt;view, approve, reject,&lt;/div&gt;&lt;div&gt;&amp;nbsp;edit as per role&lt;/div&gt;&lt;div&gt;authority&lt;br&gt;&lt;/div&gt;" style="shape=rhombus;perimeter=rhombusPerimeter;whiteSpace=wrap;html=1;align=center;" parent="1" vertex="1">
          <mxGeometry x="-2530" y="-1760" width="180" height="140" as="geometry" />
        </mxCell>
        <mxCell id="jJHuSSU_93GH472XAZiS-3" value="" style="edgeStyle=entityRelationEdgeStyle;fontSize=16;html=1;endArrow=ERoneToMany;startArrow=ERoneToMany;rounded=0;entryX=1.009;entryY=0.589;entryDx=0;entryDy=0;entryPerimeter=0;" parent="1" source="17bObgYSpj2WF66oxN5m-273" target="jJHuSSU_93GH472XAZiS-4" edge="1">
          <mxGeometry width="100" height="100" relative="1" as="geometry">
            <mxPoint x="-1830" y="-2000" as="sourcePoint" />
            <mxPoint x="-1580" y="-2360" as="targetPoint" />
          </mxGeometry>
        </mxCell>
        <mxCell id="jJHuSSU_93GH472XAZiS-4" value="&lt;div&gt;each login&lt;br&gt;&lt;/div&gt;&lt;div&gt;&amp;nbsp;trace&lt;/div&gt;" style="shape=rhombus;perimeter=rhombusPerimeter;whiteSpace=wrap;html=1;align=center;" parent="1" vertex="1">
          <mxGeometry x="-1450" y="-2480" width="90" height="70" as="geometry" />
        </mxCell>
        <mxCell id="jJHuSSU_93GH472XAZiS-5" value="" style="edgeStyle=entityRelationEdgeStyle;fontSize=12;html=1;endArrow=ERzeroToMany;startArrow=ERmandOne;rounded=0;entryX=0;entryY=0.5;entryDx=0;entryDy=0;" parent="1" source="17bObgYSpj2WF66oxN5m-279" target="jJHuSSU_93GH472XAZiS-6" edge="1">
          <mxGeometry width="100" height="100" relative="1" as="geometry">
            <mxPoint x="-1510" y="-1885" as="sourcePoint" />
            <mxPoint x="-1150" y="-1225" as="targetPoint" />
          </mxGeometry>
        </mxCell>
        <mxCell id="jJHuSSU_93GH472XAZiS-77" value="&lt;div&gt;1 mandatory&lt;/div&gt;&lt;div&gt;to&lt;/div&gt;many optional" style="edgeLabel;html=1;align=center;verticalAlign=middle;resizable=0;points=[];" parent="jJHuSSU_93GH472XAZiS-5" vertex="1" connectable="0">
          <mxGeometry x="-0.1679" y="-3" relative="1" as="geometry">
            <mxPoint y="1" as="offset" />
          </mxGeometry>
        </mxCell>
        <mxCell id="jJHuSSU_93GH472XAZiS-6" value="if login successful:&lt;br&gt;&lt;div&gt;view, Store, revoke,&lt;/div&gt;&lt;div&gt;&amp;nbsp;update as per role&lt;/div&gt;authority" style="shape=rhombus;perimeter=rhombusPerimeter;whiteSpace=wrap;html=1;align=center;" parent="1" vertex="1">
          <mxGeometry x="-1630" y="-1900" width="190" height="120" as="geometry" />
        </mxCell>
        <mxCell id="jJHuSSU_93GH472XAZiS-7" value="" style="edgeStyle=entityRelationEdgeStyle;fontSize=12;html=1;endArrow=ERoneToMany;rounded=0;exitX=1;exitY=0.5;exitDx=0;exitDy=0;entryX=0;entryY=0.5;entryDx=0;entryDy=0;" parent="1" source="C-vyLk0tnHw3VtMMgP7b-24" target="jJHuSSU_93GH472XAZiS-8" edge="1">
          <mxGeometry width="100" height="100" relative="1" as="geometry">
            <mxPoint x="-720" y="-1225" as="sourcePoint" />
            <mxPoint x="-500" y="-1445" as="targetPoint" />
          </mxGeometry>
        </mxCell>
        <mxCell id="jJHuSSU_93GH472XAZiS-97" value="1 to many" style="edgeLabel;html=1;align=center;verticalAlign=middle;resizable=0;points=[];" parent="jJHuSSU_93GH472XAZiS-7" vertex="1" connectable="0">
          <mxGeometry x="0.1278" y="-3" relative="1" as="geometry">
            <mxPoint as="offset" />
          </mxGeometry>
        </mxCell>
        <mxCell id="jJHuSSU_93GH472XAZiS-8" value="digital Trace" style="shape=rhombus;perimeter=rhombusPerimeter;whiteSpace=wrap;html=1;align=center;" parent="1" vertex="1">
          <mxGeometry x="-610" y="-1420" width="120" height="60" as="geometry" />
        </mxCell>
        <mxCell id="jJHuSSU_93GH472XAZiS-9" value="" style="edgeStyle=entityRelationEdgeStyle;fontSize=12;html=1;endArrow=ERzeroToOne;endFill=1;rounded=0;" parent="1" source="C-vyLk0tnHw3VtMMgP7b-24" target="jJHuSSU_93GH472XAZiS-10" edge="1">
          <mxGeometry width="100" height="100" relative="1" as="geometry">
            <mxPoint x="-720" y="-1225" as="sourcePoint" />
            <mxPoint x="-230" y="-955" as="targetPoint" />
          </mxGeometry>
        </mxCell>
        <mxCell id="jJHuSSU_93GH472XAZiS-98" value="0 to 1" style="edgeLabel;html=1;align=center;verticalAlign=middle;resizable=0;points=[];" parent="jJHuSSU_93GH472XAZiS-9" vertex="1" connectable="0">
          <mxGeometry x="0.0265" y="-2" relative="1" as="geometry">
            <mxPoint as="offset" />
          </mxGeometry>
        </mxCell>
        <mxCell id="jJHuSSU_93GH472XAZiS-10" value="can be revoked by authority" style="shape=rhombus;perimeter=rhombusPerimeter;whiteSpace=wrap;html=1;align=center;" parent="1" vertex="1">
          <mxGeometry x="-610" y="-1110" width="140" height="90" as="geometry" />
        </mxCell>
        <mxCell id="jJHuSSU_93GH472XAZiS-11" value="" style="edgeStyle=entityRelationEdgeStyle;fontSize=12;html=1;endArrow=ERoneToMany;rounded=0;exitX=1;exitY=0.5;exitDx=0;exitDy=0;" parent="1" source="17bObgYSpj2WF66oxN5m-123" target="jJHuSSU_93GH472XAZiS-12" edge="1">
          <mxGeometry width="100" height="100" relative="1" as="geometry">
            <mxPoint x="-1470" y="-1465" as="sourcePoint" />
            <mxPoint x="-1020" y="-1120" as="targetPoint" />
            <Array as="points">
              <mxPoint x="-1150" y="-1080" />
            </Array>
          </mxGeometry>
        </mxCell>
        <mxCell id="jJHuSSU_93GH472XAZiS-78" value="1 to many" style="edgeLabel;html=1;align=center;verticalAlign=middle;resizable=0;points=[];" parent="jJHuSSU_93GH472XAZiS-11" vertex="1" connectable="0">
          <mxGeometry x="-0.2095" y="2" relative="1" as="geometry">
            <mxPoint as="offset" />
          </mxGeometry>
        </mxCell>
        <mxCell id="jJHuSSU_93GH472XAZiS-12" value="&lt;div&gt;CSR was&lt;/div&gt;&lt;div&gt;created and verified by&lt;br&gt;&lt;/div&gt;" style="shape=rhombus;perimeter=rhombusPerimeter;whiteSpace=wrap;html=1;align=center;" parent="1" vertex="1">
          <mxGeometry x="-1590" y="-1680" width="120" height="90" as="geometry" />
        </mxCell>
        <mxCell id="jJHuSSU_93GH472XAZiS-16" value="" style="edgeStyle=entityRelationEdgeStyle;fontSize=12;html=1;endArrow=ERoneToMany;startArrow=ERmandOne;rounded=0;" parent="1" source="jJHuSSU_93GH472XAZiS-18" target="17bObgYSpj2WF66oxN5m-244" edge="1">
          <mxGeometry width="100" height="100" relative="1" as="geometry">
            <mxPoint x="-2080" y="-1340" as="sourcePoint" />
            <mxPoint x="-1980" y="-1440" as="targetPoint" />
          </mxGeometry>
        </mxCell>
        <mxCell id="jJHuSSU_93GH472XAZiS-17" value="" style="edgeStyle=entityRelationEdgeStyle;fontSize=12;html=1;endArrow=ERoneToMany;startArrow=ERmandOne;rounded=0;" parent="1" source="17bObgYSpj2WF66oxN5m-114" target="jJHuSSU_93GH472XAZiS-18" edge="1">
          <mxGeometry width="100" height="100" relative="1" as="geometry">
            <mxPoint x="-1860" y="-1555" as="sourcePoint" />
            <mxPoint x="-2320" y="-1265" as="targetPoint" />
          </mxGeometry>
        </mxCell>
        <mxCell id="jJHuSSU_93GH472XAZiS-92" value="&lt;div&gt;1 mandatory&lt;/div&gt;&lt;div&gt;to&lt;/div&gt;many mandatory" style="edgeLabel;html=1;align=center;verticalAlign=middle;resizable=0;points=[];" parent="jJHuSSU_93GH472XAZiS-17" vertex="1" connectable="0">
          <mxGeometry x="-0.0504" y="3" relative="1" as="geometry">
            <mxPoint as="offset" />
          </mxGeometry>
        </mxCell>
        <mxCell id="jJHuSSU_93GH472XAZiS-18" value="&lt;div&gt;issuer can create&amp;nbsp;&lt;/div&gt;&lt;div&gt;certificate request&lt;/div&gt;&lt;div&gt;CSR&lt;br&gt;&lt;/div&gt;" style="shape=rhombus;perimeter=rhombusPerimeter;whiteSpace=wrap;html=1;align=center;" parent="1" vertex="1">
          <mxGeometry x="-2520" y="-1540" width="150" height="120" as="geometry" />
        </mxCell>
        <mxCell id="jJHuSSU_93GH472XAZiS-21" value="" style="edgeStyle=entityRelationEdgeStyle;fontSize=12;html=1;endArrow=ERoneToMany;rounded=0;exitX=1;exitY=0.5;exitDx=0;exitDy=0;entryX=0;entryY=0.5;entryDx=0;entryDy=0;" parent="1" source="17bObgYSpj2WF66oxN5m-86" target="jJHuSSU_93GH472XAZiS-22" edge="1">
          <mxGeometry width="100" height="100" relative="1" as="geometry">
            <mxPoint x="-1460" y="-1325" as="sourcePoint" />
            <mxPoint x="-1020" y="-1080" as="targetPoint" />
          </mxGeometry>
        </mxCell>
        <mxCell id="jJHuSSU_93GH472XAZiS-79" value="1 to many" style="edgeLabel;html=1;align=center;verticalAlign=middle;resizable=0;points=[];" parent="jJHuSSU_93GH472XAZiS-21" vertex="1" connectable="0">
          <mxGeometry x="0.1239" y="-4" relative="1" as="geometry">
            <mxPoint as="offset" />
          </mxGeometry>
        </mxCell>
        <mxCell id="jJHuSSU_93GH472XAZiS-22" value="&lt;div&gt;person to&amp;nbsp;&lt;/div&gt;&lt;div&gt;whoom&amp;nbsp;&lt;/div&gt;&lt;div&gt;certificate&amp;nbsp;&lt;/div&gt;&lt;div&gt;belongs&lt;/div&gt;" style="shape=rhombus;perimeter=rhombusPerimeter;whiteSpace=wrap;html=1;align=center;" parent="1" vertex="1">
          <mxGeometry x="-1620" y="-1460" width="170" height="90" as="geometry" />
        </mxCell>
        <mxCell id="jJHuSSU_93GH472XAZiS-30" value="" style="endArrow=none;html=1;rounded=0;exitX=0.5;exitY=1;exitDx=0;exitDy=0;entryX=0.483;entryY=-0.004;entryDx=0;entryDy=0;entryPerimeter=0;" parent="1" source="jJHuSSU_93GH472XAZiS-36" target="17bObgYSpj2WF66oxN5m-85" edge="1">
          <mxGeometry relative="1" as="geometry">
            <mxPoint x="-1680" y="-1350" as="sourcePoint" />
            <mxPoint x="-1520" y="-1350" as="targetPoint" />
          </mxGeometry>
        </mxCell>
        <mxCell id="jJHuSSU_93GH472XAZiS-32" value="N" style="resizable=0;html=1;whiteSpace=wrap;align=right;verticalAlign=bottom;" parent="jJHuSSU_93GH472XAZiS-30" connectable="0" vertex="1">
          <mxGeometry x="1" relative="1" as="geometry" />
        </mxCell>
        <mxCell id="jJHuSSU_93GH472XAZiS-33" value="" style="endArrow=none;html=1;rounded=0;exitX=0.5;exitY=1;exitDx=0;exitDy=0;entryX=0.483;entryY=-0.004;entryDx=0;entryDy=0;entryPerimeter=0;" parent="1" source="17bObgYSpj2WF66oxN5m-113" target="jJHuSSU_93GH472XAZiS-36" edge="1">
          <mxGeometry relative="1" as="geometry">
            <mxPoint x="-1665" y="-1420" as="sourcePoint" />
            <mxPoint x="-1667" y="-1271" as="targetPoint" />
          </mxGeometry>
        </mxCell>
        <mxCell id="jJHuSSU_93GH472XAZiS-34" value="M" style="resizable=0;html=1;whiteSpace=wrap;align=left;verticalAlign=bottom;" parent="jJHuSSU_93GH472XAZiS-33" connectable="0" vertex="1">
          <mxGeometry x="-1" relative="1" as="geometry" />
        </mxCell>
        <mxCell id="jJHuSSU_93GH472XAZiS-36" value="&lt;div&gt;subject can make&lt;/div&gt;&lt;div&gt;CSR via Issuer&lt;br&gt;&lt;/div&gt;" style="shape=rhombus;perimeter=rhombusPerimeter;whiteSpace=wrap;html=1;align=center;" parent="1" vertex="1">
          <mxGeometry x="-2050" y="-1480" width="140" height="80" as="geometry" />
        </mxCell>
        <mxCell id="jJHuSSU_93GH472XAZiS-37" value="" style="edgeStyle=entityRelationEdgeStyle;fontSize=12;html=1;endArrow=ERmandOne;startArrow=ERmandOne;rounded=0;entryX=0;entryY=0.5;entryDx=0;entryDy=0;" parent="1" source="17bObgYSpj2WF66oxN5m-253" target="jJHuSSU_93GH472XAZiS-38" edge="1">
          <mxGeometry width="100" height="100" relative="1" as="geometry">
            <mxPoint x="-2320" y="-1115" as="sourcePoint" />
            <mxPoint x="-1860" y="-935" as="targetPoint" />
          </mxGeometry>
        </mxCell>
        <mxCell id="jJHuSSU_93GH472XAZiS-38" value="&lt;div&gt;CSR has&lt;/div&gt;&lt;div&gt;public key&lt;br&gt;&lt;/div&gt;" style="shape=rhombus;perimeter=rhombusPerimeter;whiteSpace=wrap;html=1;align=center;" parent="1" vertex="1">
          <mxGeometry x="-2530" y="-1110" width="120" height="60" as="geometry" />
        </mxCell>
        <mxCell id="jJHuSSU_93GH472XAZiS-39" value="" style="edgeStyle=entityRelationEdgeStyle;fontSize=12;html=1;endArrow=ERmandOne;startArrow=ERmandOne;rounded=0;" parent="1" source="17bObgYSpj2WF66oxN5m-256" target="jJHuSSU_93GH472XAZiS-40" edge="1">
          <mxGeometry width="100" height="100" relative="1" as="geometry">
            <mxPoint x="-2320" y="-1085" as="sourcePoint" />
            <mxPoint x="-1820" y="-425" as="targetPoint" />
          </mxGeometry>
        </mxCell>
        <mxCell id="jJHuSSU_93GH472XAZiS-40" value="&lt;div&gt;CSR has &lt;br&gt;&lt;/div&gt;&lt;div&gt;constraints&lt;br&gt;&lt;/div&gt;" style="shape=rhombus;perimeter=rhombusPerimeter;whiteSpace=wrap;html=1;align=center;" parent="1" vertex="1">
          <mxGeometry x="-2510" y="-840" width="120" height="60" as="geometry" />
        </mxCell>
        <mxCell id="jJHuSSU_93GH472XAZiS-41" value="" style="edgeStyle=entityRelationEdgeStyle;fontSize=12;html=1;endArrow=ERmandOne;startArrow=ERmandOne;rounded=0;exitX=0.996;exitY=0.733;exitDx=0;exitDy=0;exitPerimeter=0;" parent="1" source="17bObgYSpj2WF66oxN5m-259" target="jJHuSSU_93GH472XAZiS-42" edge="1">
          <mxGeometry width="100" height="100" relative="1" as="geometry">
            <mxPoint x="-2322" y="-1048" as="sourcePoint" />
            <mxPoint x="-1780" y="-225" as="targetPoint" />
          </mxGeometry>
        </mxCell>
        <mxCell id="jJHuSSU_93GH472XAZiS-42" value="&lt;div&gt;CSR&#39;s key&lt;/div&gt;&lt;div&gt;usage&lt;br&gt;&lt;/div&gt;" style="shape=rhombus;perimeter=rhombusPerimeter;whiteSpace=wrap;html=1;align=center;" parent="1" vertex="1">
          <mxGeometry x="-2520" y="-670" width="120" height="60" as="geometry" />
        </mxCell>
        <mxCell id="jJHuSSU_93GH472XAZiS-43" value="" style="edgeStyle=entityRelationEdgeStyle;fontSize=12;html=1;endArrow=ERmandOne;startArrow=ERmandOne;rounded=0;" parent="1" source="17bObgYSpj2WF66oxN5m-262" target="jJHuSSU_93GH472XAZiS-44" edge="1">
          <mxGeometry width="100" height="100" relative="1" as="geometry">
            <mxPoint x="-2320" y="-1025" as="sourcePoint" />
            <mxPoint x="-1780" y="85" as="targetPoint" />
          </mxGeometry>
        </mxCell>
        <mxCell id="jJHuSSU_93GH472XAZiS-44" value="&lt;div&gt;CSR has&lt;/div&gt;&lt;div&gt;signature&lt;br&gt;&lt;/div&gt;" style="shape=rhombus;perimeter=rhombusPerimeter;whiteSpace=wrap;html=1;align=center;" parent="1" vertex="1">
          <mxGeometry x="-2550" y="-490" width="120" height="60" as="geometry" />
        </mxCell>
        <mxCell id="jJHuSSU_93GH472XAZiS-45" value="" style="endArrow=none;html=1;rounded=0;dashed=1;dashPattern=1 2;exitX=0.5;exitY=1;exitDx=0;exitDy=0;entryX=0.5;entryY=0;entryDx=0;entryDy=0;" parent="1" source="jJHuSSU_93GH472XAZiS-49" target="17bObgYSpj2WF66oxN5m-113" edge="1">
          <mxGeometry relative="1" as="geometry">
            <mxPoint x="-1690" y="-1790" as="sourcePoint" />
            <mxPoint x="-1530" y="-1790" as="targetPoint" />
          </mxGeometry>
        </mxCell>
        <mxCell id="jJHuSSU_93GH472XAZiS-46" value="1" style="resizable=0;html=1;whiteSpace=wrap;align=right;verticalAlign=bottom;" parent="jJHuSSU_93GH472XAZiS-45" connectable="0" vertex="1">
          <mxGeometry x="1" relative="1" as="geometry" />
        </mxCell>
        <mxCell id="jJHuSSU_93GH472XAZiS-47" value="" style="endArrow=none;html=1;rounded=0;dashed=1;dashPattern=1 2;exitX=0.5;exitY=1;exitDx=0;exitDy=0;entryX=0.5;entryY=0;entryDx=0;entryDy=0;" parent="1" source="17bObgYSpj2WF66oxN5m-272" target="jJHuSSU_93GH472XAZiS-49" edge="1">
          <mxGeometry relative="1" as="geometry">
            <mxPoint x="-1640" y="-1840" as="sourcePoint" />
            <mxPoint x="-1645" y="-1720" as="targetPoint" />
          </mxGeometry>
        </mxCell>
        <mxCell id="jJHuSSU_93GH472XAZiS-49" value="&lt;div&gt;login is allowed &lt;br&gt;&lt;/div&gt;&lt;div&gt;to issuer&#39;s&lt;/div&gt;" style="shape=rhombus;perimeter=rhombusPerimeter;whiteSpace=wrap;html=1;align=center;" parent="1" vertex="1">
          <mxGeometry x="-2090" y="-1850" width="140" height="70" as="geometry" />
        </mxCell>
        <mxCell id="jJHuSSU_93GH472XAZiS-50" value="" style="edgeStyle=entityRelationEdgeStyle;fontSize=12;html=1;endArrow=ERmandOne;startArrow=ERmandOne;rounded=0;entryX=0;entryY=0.5;entryDx=0;entryDy=0;" parent="1" source="17bObgYSpj2WF66oxN5m-143" target="jJHuSSU_93GH472XAZiS-51" edge="1">
          <mxGeometry width="100" height="100" relative="1" as="geometry">
            <mxPoint x="-1450" y="-935" as="sourcePoint" />
            <mxPoint x="-1020" y="-960" as="targetPoint" />
          </mxGeometry>
        </mxCell>
        <mxCell id="jJHuSSU_93GH472XAZiS-81" value="1 to 1" style="edgeLabel;html=1;align=center;verticalAlign=middle;resizable=0;points=[];" parent="jJHuSSU_93GH472XAZiS-50" vertex="1" connectable="0">
          <mxGeometry x="-0.0327" y="-3" relative="1" as="geometry">
            <mxPoint as="offset" />
          </mxGeometry>
        </mxCell>
        <mxCell id="jJHuSSU_93GH472XAZiS-51" value="&lt;div&gt;Certificate has&lt;/div&gt;&lt;div&gt;public key&lt;br&gt;&lt;/div&gt;" style="shape=rhombus;perimeter=rhombusPerimeter;whiteSpace=wrap;html=1;align=center;" parent="1" vertex="1">
          <mxGeometry x="-1640" y="-1130" width="120" height="60" as="geometry" />
        </mxCell>
        <mxCell id="jJHuSSU_93GH472XAZiS-52" value="" style="edgeStyle=entityRelationEdgeStyle;fontSize=12;html=1;endArrow=ERmandOne;startArrow=ERmandOne;rounded=0;exitX=1;exitY=0.5;exitDx=0;exitDy=0;entryX=0;entryY=0.5;entryDx=0;entryDy=0;" parent="1" source="17bObgYSpj2WF66oxN5m-162" target="jJHuSSU_93GH472XAZiS-53" edge="1">
          <mxGeometry width="100" height="100" relative="1" as="geometry">
            <mxPoint x="-1430" y="-725" as="sourcePoint" />
            <mxPoint x="-1020" y="-920" as="targetPoint" />
          </mxGeometry>
        </mxCell>
        <mxCell id="jJHuSSU_93GH472XAZiS-82" value="1 to 1" style="edgeLabel;html=1;align=center;verticalAlign=middle;resizable=0;points=[];" parent="jJHuSSU_93GH472XAZiS-52" vertex="1" connectable="0">
          <mxGeometry x="-0.2033" y="-2" relative="1" as="geometry">
            <mxPoint y="1" as="offset" />
          </mxGeometry>
        </mxCell>
        <mxCell id="jJHuSSU_93GH472XAZiS-53" value="certificate has" style="shape=rhombus;perimeter=rhombusPerimeter;whiteSpace=wrap;html=1;align=center;" parent="1" vertex="1">
          <mxGeometry x="-1610" y="-890" width="120" height="60" as="geometry" />
        </mxCell>
        <mxCell id="jJHuSSU_93GH472XAZiS-54" value="" style="edgeStyle=entityRelationEdgeStyle;fontSize=12;html=1;endArrow=ERmandOne;startArrow=ERmandOne;rounded=0;exitX=1;exitY=0.5;exitDx=0;exitDy=0;entryX=0;entryY=0.5;entryDx=0;entryDy=0;" parent="1" source="17bObgYSpj2WF66oxN5m-188" target="jJHuSSU_93GH472XAZiS-55" edge="1">
          <mxGeometry width="100" height="100" relative="1" as="geometry">
            <mxPoint x="-1425" y="-575" as="sourcePoint" />
            <mxPoint x="-1020" y="-880" as="targetPoint" />
          </mxGeometry>
        </mxCell>
        <mxCell id="jJHuSSU_93GH472XAZiS-83" value="&lt;div&gt;1 to 1&lt;/div&gt;" style="edgeLabel;html=1;align=center;verticalAlign=middle;resizable=0;points=[];" parent="jJHuSSU_93GH472XAZiS-54" vertex="1" connectable="0">
          <mxGeometry x="0.1159" y="-2" relative="1" as="geometry">
            <mxPoint as="offset" />
          </mxGeometry>
        </mxCell>
        <mxCell id="jJHuSSU_93GH472XAZiS-55" value="&lt;div&gt;certificate&#39;s&lt;/div&gt;&lt;div&gt;allowed extended&amp;nbsp;&lt;/div&gt;&lt;div&gt;usage&lt;br&gt;&lt;/div&gt;" style="shape=rhombus;perimeter=rhombusPerimeter;whiteSpace=wrap;html=1;align=center;" parent="1" vertex="1">
          <mxGeometry x="-1590" y="-750" width="150" height="80" as="geometry" />
        </mxCell>
        <mxCell id="jJHuSSU_93GH472XAZiS-56" value="" style="edgeStyle=entityRelationEdgeStyle;fontSize=12;html=1;endArrow=ERmandOne;startArrow=ERmandOne;rounded=0;exitX=1;exitY=0.5;exitDx=0;exitDy=0;" parent="1" source="17bObgYSpj2WF66oxN5m-227" target="jJHuSSU_93GH472XAZiS-57" edge="1">
          <mxGeometry width="100" height="100" relative="1" as="geometry">
            <mxPoint x="-1510" y="85" as="sourcePoint" />
            <mxPoint x="-1020" y="-760" as="targetPoint" />
          </mxGeometry>
        </mxCell>
        <mxCell id="jJHuSSU_93GH472XAZiS-86" value="1 to 1" style="edgeLabel;html=1;align=center;verticalAlign=middle;resizable=0;points=[];" parent="jJHuSSU_93GH472XAZiS-56" vertex="1" connectable="0">
          <mxGeometry x="0.0612" y="1" relative="1" as="geometry">
            <mxPoint as="offset" />
          </mxGeometry>
        </mxCell>
        <mxCell id="jJHuSSU_93GH472XAZiS-57" value="&lt;div&gt;certificate has&lt;/div&gt;&lt;div&gt;signature&lt;br&gt;&lt;/div&gt;" style="shape=rhombus;perimeter=rhombusPerimeter;whiteSpace=wrap;html=1;align=center;" parent="1" vertex="1">
          <mxGeometry x="-1560" y="-280" width="120" height="60" as="geometry" />
        </mxCell>
        <mxCell id="jJHuSSU_93GH472XAZiS-58" value="" style="edgeStyle=entityRelationEdgeStyle;fontSize=12;html=1;endArrow=ERmandOne;startArrow=ERmandOne;rounded=0;entryX=0;entryY=0.5;entryDx=0;entryDy=0;" parent="1" source="17bObgYSpj2WF66oxN5m-201" target="jJHuSSU_93GH472XAZiS-59" edge="1">
          <mxGeometry width="100" height="100" relative="1" as="geometry">
            <mxPoint x="-1520" y="-225" as="sourcePoint" />
            <mxPoint x="-1020" y="-800" as="targetPoint" />
          </mxGeometry>
        </mxCell>
        <mxCell id="jJHuSSU_93GH472XAZiS-85" value="1 to 1" style="edgeLabel;html=1;align=center;verticalAlign=middle;resizable=0;points=[];" parent="jJHuSSU_93GH472XAZiS-58" vertex="1" connectable="0">
          <mxGeometry x="0.1167" y="-1" relative="1" as="geometry">
            <mxPoint as="offset" />
          </mxGeometry>
        </mxCell>
        <mxCell id="jJHuSSU_93GH472XAZiS-59" value="&lt;div&gt;certificate&#39;s &lt;br&gt;&lt;/div&gt;&lt;div&gt;key usage&lt;br&gt;&lt;/div&gt;&amp;nbsp;allowed" style="shape=rhombus;perimeter=rhombusPerimeter;whiteSpace=wrap;html=1;align=center;" parent="1" vertex="1">
          <mxGeometry x="-1570" y="-450" width="160" height="80" as="geometry" />
        </mxCell>
        <mxCell id="jJHuSSU_93GH472XAZiS-61" value="" style="edgeStyle=entityRelationEdgeStyle;fontSize=12;html=1;endArrow=ERmandOne;startArrow=ERmandOne;rounded=0;exitX=1;exitY=0.5;exitDx=0;exitDy=0;entryX=0;entryY=0.5;entryDx=0;entryDy=0;" parent="1" source="17bObgYSpj2WF66oxN5m-175" target="jJHuSSU_93GH472XAZiS-60" edge="1">
          <mxGeometry width="100" height="100" relative="1" as="geometry">
            <mxPoint x="-1470" y="-425" as="sourcePoint" />
            <mxPoint x="-1020" y="-840" as="targetPoint" />
          </mxGeometry>
        </mxCell>
        <mxCell id="jJHuSSU_93GH472XAZiS-84" value="1 to 1" style="edgeLabel;html=1;align=center;verticalAlign=middle;resizable=0;points=[];" parent="jJHuSSU_93GH472XAZiS-61" vertex="1" connectable="0">
          <mxGeometry x="-0.0245" y="1" relative="1" as="geometry">
            <mxPoint as="offset" />
          </mxGeometry>
        </mxCell>
        <mxCell id="jJHuSSU_93GH472XAZiS-60" value="&lt;div&gt;basic constraints&lt;/div&gt;&lt;div&gt;of certificate&lt;br&gt;&lt;/div&gt;" style="shape=rhombus;perimeter=rhombusPerimeter;whiteSpace=wrap;html=1;align=center;" parent="1" vertex="1">
          <mxGeometry x="-1580" y="-610" width="150" height="100" as="geometry" />
        </mxCell>
        <mxCell id="jJHuSSU_93GH472XAZiS-64" value="" style="edgeStyle=entityRelationEdgeStyle;fontSize=12;html=1;endArrow=ERmandOne;startArrow=ERmandOne;rounded=0;exitX=1;exitY=0.5;exitDx=0;exitDy=0;" parent="1" source="jJHuSSU_93GH472XAZiS-69" target="17bObgYSpj2WF66oxN5m-295" edge="1">
          <mxGeometry width="100" height="100" relative="1" as="geometry">
            <mxPoint x="-2880" y="-1970" as="sourcePoint" />
            <mxPoint x="-2780" y="-2070" as="targetPoint" />
          </mxGeometry>
        </mxCell>
        <mxCell id="jJHuSSU_93GH472XAZiS-94" value="1 to 1" style="edgeLabel;html=1;align=center;verticalAlign=middle;resizable=0;points=[];" parent="jJHuSSU_93GH472XAZiS-64" vertex="1" connectable="0">
          <mxGeometry x="-0.0091" y="2" relative="1" as="geometry">
            <mxPoint as="offset" />
          </mxGeometry>
        </mxCell>
        <mxCell id="jJHuSSU_93GH472XAZiS-66" value="" style="edgeStyle=entityRelationEdgeStyle;fontSize=12;html=1;endArrow=ERmandOne;startArrow=ERmandOne;rounded=0;entryX=0.75;entryY=0;entryDx=0;entryDy=0;exitX=1;exitY=0.5;exitDx=0;exitDy=0;" parent="1" source="jJHuSSU_93GH472XAZiS-72" target="C-vyLk0tnHw3VtMMgP7b-23" edge="1">
          <mxGeometry width="100" height="100" relative="1" as="geometry">
            <mxPoint x="-942.2524588860624" y="-2140" as="sourcePoint" />
            <mxPoint x="-320" y="-1779.74" as="targetPoint" />
          </mxGeometry>
        </mxCell>
        <mxCell id="jJHuSSU_93GH472XAZiS-68" value="" style="edgeStyle=entityRelationEdgeStyle;fontSize=12;html=1;endArrow=ERmandOne;startArrow=ERmandOne;rounded=0;exitX=0.471;exitY=0;exitDx=0;exitDy=0;exitPerimeter=0;" parent="1" source="17bObgYSpj2WF66oxN5m-240" target="jJHuSSU_93GH472XAZiS-69" edge="1">
          <mxGeometry width="100" height="100" relative="1" as="geometry">
            <mxPoint x="-3020" y="-1320" as="sourcePoint" />
            <mxPoint x="-1860" y="-2545" as="targetPoint" />
          </mxGeometry>
        </mxCell>
        <mxCell id="jJHuSSU_93GH472XAZiS-69" value="&lt;div&gt;any activity on&lt;/div&gt;&lt;div&gt;table should&lt;/div&gt;&lt;div&gt;be noted&lt;br&gt;&lt;/div&gt;" style="shape=rhombus;perimeter=rhombusPerimeter;whiteSpace=wrap;html=1;align=center;" parent="1" vertex="1">
          <mxGeometry x="-2880" y="-1870" width="210" height="80" as="geometry" />
        </mxCell>
        <mxCell id="jJHuSSU_93GH472XAZiS-71" value="" style="edgeStyle=entityRelationEdgeStyle;fontSize=12;html=1;endArrow=ERmandOne;startArrow=ERmandOne;rounded=0;entryX=0;entryY=0.5;entryDx=0;entryDy=0;" parent="1" source="17bObgYSpj2WF66oxN5m-295" target="jJHuSSU_93GH472XAZiS-72" edge="1">
          <mxGeometry width="100" height="100" relative="1" as="geometry">
            <mxPoint x="-1550" y="-2545" as="sourcePoint" />
            <mxPoint x="-257" y="-1470" as="targetPoint" />
          </mxGeometry>
        </mxCell>
        <mxCell id="jJHuSSU_93GH472XAZiS-95" value="1 to 1" style="edgeLabel;html=1;align=center;verticalAlign=middle;resizable=0;points=[];" parent="jJHuSSU_93GH472XAZiS-71" vertex="1" connectable="0">
          <mxGeometry x="0.0453" relative="1" as="geometry">
            <mxPoint as="offset" />
          </mxGeometry>
        </mxCell>
        <mxCell id="jJHuSSU_93GH472XAZiS-72" value="&lt;div&gt;any activity on&lt;/div&gt;&lt;div&gt;table should&lt;/div&gt;&lt;div&gt;be recorded&lt;/div&gt;" style="shape=rhombus;perimeter=rhombusPerimeter;whiteSpace=wrap;html=1;align=center;rotation=-1;" parent="1" vertex="1">
          <mxGeometry x="-1430" y="-2220" width="150" height="100" as="geometry" />
        </mxCell>
        <mxCell id="jJHuSSU_93GH472XAZiS-101" value="" style="edgeStyle=entityRelationEdgeStyle;fontSize=12;html=1;endArrow=ERoneToMany;rounded=0;entryX=1;entryY=0.5;entryDx=0;entryDy=0;exitX=0;exitY=0.5;exitDx=0;exitDy=0;" parent="1" source="jJHuSSU_93GH472XAZiS-20" target="jJHuSSU_93GH472XAZiS-13" edge="1">
          <mxGeometry width="100" height="100" relative="1" as="geometry">
            <mxPoint x="-2320" y="-1140" as="sourcePoint" />
            <mxPoint x="-2220" y="-1240" as="targetPoint" />
          </mxGeometry>
        </mxCell>
        <mxCell id="jJHuSSU_93GH472XAZiS-103" value="" style="edgeStyle=entityRelationEdgeStyle;fontSize=12;html=1;endArrow=ERoneToMany;rounded=0;entryX=1;entryY=0.5;entryDx=0;entryDy=0;exitX=0;exitY=0.5;exitDx=0;exitDy=0;" parent="1" source="17bObgYSpj2WF66oxN5m-86" target="jJHuSSU_93GH472XAZiS-20" edge="1">
          <mxGeometry width="100" height="100" relative="1" as="geometry">
            <mxPoint x="-2190" y="-1315" as="sourcePoint" />
            <mxPoint x="-2750" y="-1215" as="targetPoint" />
          </mxGeometry>
        </mxCell>
        <mxCell id="jJHuSSU_93GH472XAZiS-104" value="1 to many" style="edgeLabel;html=1;align=center;verticalAlign=middle;resizable=0;points=[];" parent="jJHuSSU_93GH472XAZiS-103" vertex="1" connectable="0">
          <mxGeometry x="0.0919" y="3" relative="1" as="geometry">
            <mxPoint as="offset" />
          </mxGeometry>
        </mxCell>
        <mxCell id="jJHuSSU_93GH472XAZiS-20" value="&lt;div&gt;person requesting&lt;/div&gt;&lt;div&gt;certificate&lt;br&gt;&lt;/div&gt;" style="shape=rhombus;perimeter=rhombusPerimeter;whiteSpace=wrap;html=1;align=center;" parent="1" vertex="1">
          <mxGeometry x="-2550" y="-1310" width="140" height="90" as="geometry" />
        </mxCell>
      </root>
    </mxGraphModel>
  </diagram>
</mxfile>
